<svg version="1.1" viewBox="0 0 265.38 147.64" xmlns="http://www.w3.org/2000/svg">
 <g transform="translate(-6.1939 -32.686)">
  <g transform="matrix(1.1145 0 0 1.1145 -.70912 22.47)" stroke="#000" stroke-opacity=".99598" stroke-width=".5px">
   <g transform="scale(.94157 1.0621)" aria-label="JASON">
    <path class="svg-elem-1" d="m20.1 68.915q-6.3584 0-9.9803-3.2195-3.5414-3.3-3.5414-8.2096 0-2.817 1.4488-4.8292 1.5292-2.0122 4.5072-2.0122 2.3341 0 3.8634 1.5292 1.6097 1.5292 1.6097 3.7829 0 1.6097-0.80487 2.3341-0.72438 0.72438-1.6902 1.1268-0.96584 0.32195-1.7707 0.80487-0.72438 0.40243-0.72438 1.4488 0 1.5292 1.6902 2.5756 1.7707 1.0463 4.7487 1.0463 4.8292 0 6.7609-3.3804 2.0122-3.4609 2.0122-10.222v-35.092q0-2.4146-1.3683-3.6219-1.2878-1.2073-4.7487-1.2073-1.2073 0-1.2073-1.0463 0-1.2073 1.2073-1.2073 0.32195 0 1.6902 0.080487 1.3683 0 3.139 0.080487 1.8512 0 3.4609 0.080487 1.6902 0 2.6561 0t2.6561 0q1.6902-0.080487 3.5414-0.080487 1.8512-0.080487 3.2195-0.080487 1.4488-0.080487 1.7707-0.080487 1.0463 0 1.0463 1.2073 0 0.32195-0.24146 0.72438-0.24146 0.32195-0.80487 0.32195-3.4609 0-4.9097 1.2073-1.3683 1.1268-1.3683 3.6219v34.69q0 6.1975-2.3341 10.141-2.2536 3.8634-6.278 5.7145-4.0243 1.7707-9.256 1.7707z"/>
    <path class="svg-elem-2" d="m39.599 68.03q-1.0463 0-1.0463-1.0463 0-1.2878 1.0463-1.2878 2.817 0 4.4268-0.96584 1.6097-1.0463 2.8975-3.8634 0.64389-1.2878 1.8512-4.3463 1.2878-3.0585 2.8975-7.3243 1.6902-4.2658 3.5414-9.095 1.8512-4.8292 3.7024-9.6584t3.3804-8.934q1.6097-4.1853 2.6561-7.1633 1.1268-2.978 1.5292-4.0243 0.40243-1.0463 0.88535-1.3683 0.56341-0.32195 1.8512-0.32195 1.2878 0 1.8512 0.32195 0.56341 0.32195 0.96584 1.3683 0.64389 1.6097 2.0122 5.2316 1.4488 3.6219 3.3 8.3706 1.8512 4.7487 3.8634 9.9803 2.0122 5.1511 3.8634 10.061 1.9317 4.9097 3.4609 8.934 1.5292 3.9438 2.4146 6.117 1.4488 3.7024 3.0585 5.2316 1.6902 1.4488 3.2195 1.4488 1.0463 0 1.0463 1.2878 0 1.0463-1.0463 1.0463-0.80487 0-3.3 0-2.4951-0.08049-6.6804-0.08049-3.4609 0-6.5999 0.08049-3.139 0-3.9438 0-1.0463 0-1.0463-1.0463 0-1.2878 1.0463-1.2878 2.5756 0 3.5414-0.80487 1.0463-0.88535 1.0463-2.0122 0-1.2073-0.40243-2.0122-0.08049-0.16097-0.56341-1.6097-0.48292-1.4488-1.2073-3.4609-0.64389-2.0927-1.3683-4.1048-0.72438-2.0927-1.2073-3.5414h-21.731q-0.48292 1.6097-1.2878 4.1048-0.72438 2.4146-1.3683 4.7487-0.56341 2.3341-0.56341 3.7829 0 2.978 1.4488 3.9438 1.5292 0.96584 4.1853 0.96584 1.0463 0 1.0463 1.2878 0 1.0463-1.0463 1.0463-0.80487 0-3.0585 0-2.1731-0.08049-5.7145-0.08049-3.139 0-5.5536 0.08049-2.4146 0-3.3 0zm16.258-22.536h19.639l-9.4169-26.561z"/>
    <path class="svg-elem-3" d="m121.4 68.996q-4.3463 0-7.9682-1.0463-3.6219-1.0463-6.117-2.2536-2.4951-1.2878-3.6219-1.7707-1.0463 0.80487-1.8512 1.4488-0.72437 0.64389-1.8512 1.7707-0.80487 0.80487-1.5292 0.48292-0.72438-0.40243-0.72438-1.2878v-15.695q0-0.96584 1.0463-1.1268 1.1268-0.16097 1.3683 0.56341 1.5292 4.5072 4.6682 8.0487 3.139 3.5414 7.4852 5.5536 4.4268 1.9317 9.4974 1.9317 4.1853 0 6.7609-1.6902 2.656-1.6902 3.9438-4.2658 1.2878-2.6561 1.2878-5.2316 0-3.4609-1.9317-5.5536-1.9317-2.1731-5.0707-3.4609-3.139-1.3683-7.0023-2.3341-3.7829-0.96584-7.5657-2.0927-3.7829-1.1268-6.9218-2.8975-3.139-1.8512-5.0707-4.8292-1.9317-3.0585-1.9317-7.7267 0-5.5536 2.6561-9.256 2.7366-3.7829 7.2438-5.7145 4.5072-1.9317 9.7389-1.9317 3.3804 0 6.4389 0.80487 3.139 0.80487 5.6341 1.9317 2.4951 1.0463 3.8634 1.9317 0.96584-0.88535 1.6097-1.4488 0.72438-0.64389 1.1268-0.96584 0.80486-0.64389 1.4488-0.24146 0.64389 0.32195 0.64389 1.3683v13.763q0 1.0463-1.0463 1.2878-0.96584 0.24146-1.3683-0.80487-1.7707-3.9438-4.5072-7.3243-2.6561-3.3804-6.1975-5.4731-3.4609-2.0927-7.6462-2.0927-3.4609 0-6.117 1.5292-2.656 1.4488-4.1853 3.8634t-1.5292 5.3926q0 3.3804 1.9317 5.3926 2.0122 2.0122 5.2316 3.2195 3.2195 1.2073 7.0828 2.0927 3.9438 0.88535 7.8072 2.0122 3.8634 1.0463 7.0828 2.8975 3.2195 1.8512 5.1512 4.9902 2.0122 3.0585 2.0122 8.0487 0 5.7145-2.7365 9.8194-2.7366 4.1048-7.4853 6.278-4.7487 2.0927-10.785 2.0927z"/>
    <path class="svg-elem-4" d="m171.57 68.996q-7.8072 0-13.844-3.7829-5.956-3.7829-9.3364-10.544-3.3804-6.8414-3.3804-15.856 0-9.1755 3.5414-15.936 3.5414-6.7609 9.4974-10.463 6.0365-3.7829 13.522-3.7829 7.4852 0 13.441 3.7829 6.0365 3.7024 9.5779 10.463 3.5414 6.7609 3.5414 15.936 0 9.0145-3.4609 15.856-3.3804 6.7609-9.3364 10.544-5.956 3.7829-13.763 3.7829zm0-2.978q4.3463 0 7.8072-2.4951 3.4609-2.5756 5.4731-8.5316 2.0122-5.956 2.0122-16.178 0-10.302-2.0122-16.258-2.0122-5.956-5.4731-8.5316t-7.8072-2.5756-7.8072 2.5756q-3.4609 2.5756-5.4731 8.5316-2.0122 5.956-2.0122 16.258 0 10.222 2.0122 16.178 2.0122 5.956 5.4731 8.5316 3.4609 2.4951 7.8072 2.4951z"/>
    <path class="svg-elem-5" d="m246.78 68.271q-2.1731 0.08049-3.2195-0.16097-0.96584-0.24146-1.6097-1.2878-1.0463-1.6097-3.139-4.9097-2.0122-3.3804-4.7487-7.7267-2.7365-4.4268-5.795-9.256-2.978-4.9097-5.956-9.6584-2.978-4.7487-5.5536-8.773-2.4951-4.1048-4.2658-6.8414-1.7707-2.817-2.3341-3.6219v38.795q0 6.117 2.3341 8.5316 2.4146 2.3341 5.6341 2.3341 0.40243 0 0.72437 0.32195 0.40244 0.24146 0.40244 0.80487 0 0.56341-0.40244 0.88535-0.32194 0.32195-0.72437 0.32195-0.80487 0-3.3-0.08049-2.4951-0.16097-6.0365-0.16097-4.1853 0-6.3584 0.16097-2.0926 0.08049-2.978 0.08049-1.0463 0-1.0463-1.2073 0-1.1268 1.0463-1.1268 3.3804 0 5.4731-2.4146 2.1731-2.4146 2.1731-8.3706v-37.507q0-2.8975-1.2878-4.1853-1.2878-1.3683-4.5877-1.3683-1.0463 0-1.0463-1.2073 0-1.0463 1.0463-1.0463 0.64389 0 4.2658 0.080487 3.7024 0.080487 9.6584 0.080487 1.3683 0 2.0122 0.40243 0.64389 0.40243 1.2073 1.3683 0.32195 0.56341 1.9317 3.0585 1.6097 2.4951 4.0243 6.278 2.4951 3.7829 5.3121 8.2096 2.8975 4.4268 5.795 8.934 2.8975 4.5072 5.3926 8.4511 2.5756 3.8634 4.3463 6.5999 1.7707 2.6561 2.3341 3.5414v-33.804q0-5.8755-2.2536-8.3706-2.1731-2.5756-6.0365-2.5756-1.0463 0-1.0463-1.2073 0-1.0463 1.0463-1.0463 0.88535 0 3.4609 0.16097 2.5756 0.080487 6.117 0.080487 3.4609 0 5.956-0.080487 2.4951-0.16097 3.3-0.16097 1.2073 0 1.2073 1.0463 0 1.2073-1.2073 1.2073-3.0585 0-5.3121 2.4951-2.1731 2.4146-2.1731 8.4511v30.585q0 4.2658 0.32194 7.2438 0.32195 2.8975 0.48292 5.4731 0.0805 0.88535-0.64389 1.5292-0.64389 0.56341-3.9438 0.64389z"/>
   </g>
   <g transform="scale(.85596 1.1683)" aria-label="CODING">
    <path class="svg-elem-6" d="m33.747 121.23q-7.39 0-13.097-2.9999-5.634-3.0731-8.8534-9.1461-3.1462-6.073-3.1462-15.146 0-8.8534 3.3658-15 3.4389-6.1462 9.1461-9.3656 5.7072-3.2194 12.585-3.2194 2.7072 0 4.9755 0.80485 2.2682 0.73169 3.9511 1.6829 1.6829 0.95119 2.6341 1.756 1.0244 0.73169 1.1707 0.73169 1.1707-0.95119 2.0487-1.756 0.87802-0.80486 1.3902-1.1707 0.65852-0.58535 1.4634-0.29267t0.80486 1.1707v13.756q0 0.87802-1.0244 1.0975-1.0244 0.21951-1.3902-0.51218-1.3902-3.5121-3.5853-6.8778-2.1951-3.4389-5.2681-5.634-3.0731-2.2682-7.1705-2.2682-3.5853 0-7.0242 2.6341-3.3658 2.5609-5.634 8.1217-2.1951 5.4876-2.1951 14.341 0 6.6583 1.317 11.268 1.317 4.6096 3.5121 7.39 2.1951 2.7804 4.9023 4.0243 2.7804 1.2439 5.634 1.2439 6.7315 0 10.975-3.0731 4.3169-3.1462 7.2437-9.3656 0.36584-0.65851 0.95119-0.87802 0.58535-0.29267 1.0975 0.0732 0.51218 0.29267 0.73169 0.80485 0.29267 0.51218 0.07317 1.0975-2.5609 6.6584-7.9022 10.683-5.2681 4.0243-13.683 4.0243z"/>
    <path class="svg-elem-7" d="m80.684 121.23q-7.0974 0-12.585-3.4389-5.4145-3.4389-8.4876-9.5851-3.0731-6.2193-3.0731-14.414 0-8.3412 3.2194-14.487 3.2194-6.1462 8.6339-9.5119 5.4876-3.4389 12.292-3.4389t12.219 3.4389q5.4876 3.3658 8.7071 9.5119 3.2194 6.1462 3.2194 14.487 0 8.1949-3.1462 14.414-3.0731 6.1462-8.4876 9.5851-5.4145 3.4389-12.512 3.4389zm0-2.7072q3.9511 0 7.0974-2.2682 3.1462-2.3414 4.9755-7.7559 1.8292-5.4145 1.8292-14.707 0-9.3656-1.8292-14.78-1.8292-5.4145-4.9755-7.7559-3.1462-2.3414-7.0974-2.3414t-7.0974 2.3414q-3.1462 2.3414-4.9755 7.7559-1.8292 5.4145-1.8292 14.78 0 9.2924 1.8292 14.707 1.8292 5.4145 4.9755 7.7559 3.1462 2.2682 7.0974 2.2682z"/>
    <path class="svg-elem-8" d="m106.62 120.36q-1.0244 0-1.0244-1.0244t1.0244-1.0244q3.8048 0 5.1218-1.0975 1.317-1.1707 1.317-3.3658v-40.17q0-2.1219-1.2439-3.2194-1.2439-1.1707-5.3413-1.1707-0.95119 0-0.95119-1.0244 0-1.0244 0.95119-1.0244 0.65852 0 3.7316 0.14634 3.1462 0.07317 7.3169 0.07317 4.8291 0 7.6095-0.07317 2.8536-0.14634 4.3169-0.14634 4.6096 0 8.9997 1.4634 4.3901 1.3902 7.9022 4.5365t5.5608 8.2681q2.1219 5.0486 2.1219 12.365 0 7.0242-2.1219 12.073-2.0487 5.0486-5.634 8.2681-3.5121 3.1462-7.9022 4.6828-4.3169 1.4634-8.9266 1.4634-1.4634 0-4.3169-0.0732-2.8536-0.0732-7.7559-0.0732-4.0974 0-7.0974 0.0732-2.9267 0.0732-3.6584 0.0732zm16.829-2.2682h4.317q2.9999 0 5.8535-1.0975 2.8536-1.1707 5.195-3.8779 2.3414-2.7804 3.7316-7.4632 1.3902-4.6828 1.3902-11.78 0-7.39-1.2439-12.146-1.1707-4.756-3.2926-7.39-2.1219-2.7072-4.8291-3.7316-2.6341-1.0975-5.5608-1.0975h-7.0242v47.121q0 1.6097 1.4634 1.4634z"/>
    <path class="svg-elem-9" d="m154.86 120.36q-0.95119 0-0.95119-1.1707 0-0.95119 0.95119-0.95119 3.8048 0 5.4876-0.80486 1.6829-0.80485 1.6829-3.4389v-40.535q0-2.4146-1.6097-3.2926-1.5365-0.87802-5.5608-0.87802-0.95119 0-0.95119-1.0244 0-1.0244 0.95119-1.0244 1.2439 0 3.2194 0.07317 2.0487 0.07317 4.317 0.14634 2.2682 0 4.1706 0 1.8292 0 4.0974 0 2.3414-0.07317 4.3901-0.14634 2.1219-0.07317 3.2926-0.07317 1.0975 0 1.0975 1.0244 0 1.0244-1.0975 1.0244-3.8779 0-5.5608 0.87802-1.6097 0.87802-1.6097 3.2926v40.535q0 2.6341 1.756 3.4389 1.756 0.80486 5.4145 0.80486 1.0975 0 1.0975 0.95119 0 1.1707-1.0975 1.1707-1.1707 0-3.2926-0.0732-2.0487-0.0732-4.3901-0.14634-2.2682-0.0732-4.0974-0.0732-1.9024 0-4.1706 0.0732t-4.317 0.14634q-1.9756 0.0732-3.2194 0.0732z"/>
    <path class="svg-elem-10" d="m222.54 120.58q-1.9756 0.0732-2.9267-0.14633-0.87802-0.21951-1.4634-1.1707-0.95119-1.4634-2.8536-4.4633-1.8292-3.0731-4.3169-7.0242-2.4877-4.0243-5.2681-8.4144-2.7072-4.4633-5.4145-8.7802-2.7072-4.3169-5.0486-7.9754-2.2682-3.7316-3.8779-6.2193-1.6097-2.5609-2.1219-3.2926v35.267q0 5.5608 2.1219 7.7559 2.1951 2.1219 5.1218 2.1219 0.36585 0 0.65852 0.29267 0.36584 0.21951 0.36584 0.73169t-0.36584 0.80485q-0.29267 0.29268-0.65852 0.29268-0.73168 0-2.9999-0.0732-2.2682-0.14634-5.4876-0.14634-3.8048 0-5.7803 0.14634-1.9024 0.0732-2.7072 0.0732-0.9512 0-0.9512-1.0975 0-1.0244 0.9512-1.0244 3.0731 0 4.9755-2.1951 1.9756-2.1951 1.9756-7.6095v-34.097q0-2.6341-1.1707-3.8048-1.1707-1.2439-4.1706-1.2439-0.9512 0-0.9512-1.0975 0-0.95119 0.9512-0.95119 0.58534 0 3.8779 0.07317 3.3658 0.07317 8.7802 0.07317 1.2439 0 1.8292 0.36584t1.0975 1.2439q0.29267 0.51218 1.756 2.7804 1.4634 2.2682 3.6584 5.7072 2.2682 3.4389 4.8291 7.4632 2.6341 4.0243 5.2681 8.1217 2.6341 4.0974 4.9023 7.6827 2.3414 3.5121 3.9511 5.9998 1.6097 2.4146 2.1219 3.2194v-30.731q0-5.3413-2.0487-7.6095-1.9756-2.3414-5.4876-2.3414-0.9512 0-0.9512-1.0975 0-0.95119 0.9512-0.95119 0.80485 0 3.1462 0.14634 2.3414 0.07317 5.5608 0.07317 3.1462 0 5.4145-0.07317 2.2682-0.14634 2.9999-0.14634 1.0975 0 1.0975 0.95119 0 1.0975-1.0975 1.0975-2.7804 0-4.8291 2.2682-1.9756 2.1951-1.9756 7.6827v27.804q0 3.8779 0.29267 6.5852 0.29268 2.6341 0.43902 4.9755 0.0732 0.80486-0.58535 1.3902-0.58535 0.51218-3.5853 0.58534z"/>
    <path class="svg-elem-11" d="m259.52 121.23q-7.0242 0-12.512-3.0731-5.4876-3.0731-8.6339-9.2192-3.1462-6.2193-3.1462-15.439 0-6.3657 2.1219-11.341 2.1219-5.0486 5.7072-8.5607t7.9754-5.3413q4.4633-1.9024 9.1461-1.9024 2.6341 0 5.0486 0.65852 2.4146 0.58535 4.0974 1.3902 1.756 0.73169 2.1219 1.0975 0.80485-0.36584 2.195-1.0244 1.3902-0.65852 1.8292-0.73169 0.65852-0.21951 1.4634 0.14634 0.87802 0.29268 0.87802 1.1707v13.317q0 0.73169-1.0244 0.95119-0.95119 0.14634-1.2439-0.51218-1.6829-3.4389-3.8048-6.5852-2.1219-3.2194-4.9023-5.2681-2.7804-2.0487-6.6583-2.0487-2.7072 0-5.3413 1.317-2.5609 1.2439-4.6828 4.1706-2.1219 2.8536-3.4389 7.6095-1.2439 4.6828-1.2439 11.487 0 9.4387 1.8292 14.926 1.8292 5.4876 5.0486 7.829 3.2194 2.2682 7.3169 2.2682 5.9998 0 8.4144-3.2926 2.4146-3.3658 2.4146-8.6339v-3.2194q0-1.9024-0.95119-2.9267-0.95119-1.0244-4.2438-1.0244-0.51218 0-0.80485-0.29268-0.29268-0.36584-0.29268-0.73169 0-1.0975 1.0975-1.0975 0.51218 0 2.0487 0.07317 1.6097 0.07317 3.5853 0.14634 2.0487 0.07317 3.8779 0.07317 2.7804 0 5.5608-0.14634 2.7804-0.14634 3.7316-0.14634 0.51218 0 0.87803 0.29268 0.43901 0.29267 0.43901 0.80485 0 0.43901-0.43901 0.73169-0.36585 0.29268-0.87803 0.29268-2.0487 0-3.3658 0.80485-1.317 0.73169-1.317 3.3658 0 6.2193 0.21951 10.39 0.2195 4.0974 0.2195 4.6096 0 0.80486-0.87802 1.0244-0.80485 0.14634-1.1707-0.29267-0.29267-0.36584-1.0975-1.3902-0.73169-1.0244-1.6097-2.0487-0.80486-1.0244-1.317-1.4634-1.2439 1.6097-3.2194 3.2194-1.9756 1.5365-4.756 2.5609-2.7072 1.0244-6.2925 1.0244z"/>
   </g>
  </g>
 </g>
</svg>
