<?xml version="1.0" encoding="UTF-8" standalone="no"?>
<!-- Created with Inkscape (http://www.inkscape.org/) -->

<svg
   width="3.5in"
   height="2in"
   viewBox="0 0 336 192"
   version="1.1"
   id="svg5"
   inkscape:version="1.1.2 (0a00cf5339, 2022-02-04, custom)"
   sodipodi:docname="showcase-topcard.svg"
   xmlns:inkscape="http://www.inkscape.org/namespaces/inkscape"
   xmlns:sodipodi="http://sodipodi.sourceforge.net/DTD/sodipodi-0.dtd"
   xmlns="http://www.w3.org/2000/svg"
   xmlns:svg="http://www.w3.org/2000/svg">
  <sodipodi:namedview
     id="namedview7"
     pagecolor="#ffffff"
     bordercolor="#666666"
     borderopacity="1.0"
     inkscape:pageshadow="2"
     inkscape:pageopacity="0.0"
     inkscape:pagecheckerboard="0"
     inkscape:document-units="in"
     showgrid="false"
     inkscape:zoom="2.8284271"
     inkscape:cx="135.94128"
     inkscape:cy="79.372736"
     inkscape:window-width="1930"
     inkscape:window-height="842"
     inkscape:window-x="335"
     inkscape:window-y="143"
     inkscape:window-maximized="0"
     inkscape:current-layer="layer1"
     showguides="false" />
  <defs
     id="defs2">
    <marker
       style="overflow:visible"
       id="Arrow1Lstart"
       refX="0.0"
       refY="0.0"
       orient="auto"
       inkscape:stockid="Arrow1Lstart"
       inkscape:isstock="true">
      <path
         transform="scale(0.8) translate(12.5,0)"
         style="fill-rule:evenodd;fill:context-stroke;stroke:context-stroke;stroke-width:1.0pt"
         d="M 0.0,0.0 L 5.0,-5.0 L -12.5,0.0 L 5.0,5.0 L 0.0,0.0 z "
         id="path10159" />
    </marker>
  </defs>
  <g
     inkscape:label="Layer 1"
     inkscape:groupmode="layer"
     id="layer1">
    <path
       id="rect1006"
       style="opacity:1;fill:#3b3c45;stroke-width:0;fill-opacity:1"
       d="M 9.5996094 0 C 4.2812092 0 2.3684758e-15 4.2812092 0 9.5996094 L 0 182.40039 C 0 187.71879 4.2812092 192 9.5996094 192 L 326.40039 192 C 331.71879 192 336 187.71879 336 182.40039 L 336 9.5996094 C 336 4.2812092 331.71879 2.3684758e-15 326.40039 0 L 9.5996094 0 z M 247.60938 60.417969 L 252.41016 60.417969 L 252.41016 67.220703 L 257.20898 67.220703 L 257.20898 60.417969 L 262.00977 60.417969 L 262.00977 67.220703 L 266.81055 67.220703 L 266.81055 60.417969 L 271.60938 60.417969 L 271.60938 67.220703 L 276.41016 67.220703 L 276.41016 60.417969 L 281.20898 60.417969 L 281.20898 67.220703 L 286.00977 67.220703 L 286.00977 60.417969 L 290.81055 60.417969 L 290.81055 67.220703 L 295.60938 67.220703 L 295.60938 60.417969 L 300.41016 60.417969 L 300.41016 67.220703 L 305.20898 67.220703 L 305.20898 60.417969 L 310.00977 60.417969 L 310.00977 67.220703 L 314.81055 67.220703 L 314.81055 60.417969 L 319.60938 60.417969 L 319.60938 67.220703 L 314.81055 67.220703 L 314.81055 74.023438 L 319.60938 74.023438 L 319.60938 80.828125 L 314.81055 80.828125 L 314.81055 87.630859 L 319.60938 87.630859 L 319.60938 94.435547 L 314.81055 94.435547 L 314.81055 101.23828 L 319.60938 101.23828 L 319.60938 108.04297 L 314.81055 108.04297 L 314.81055 114.82227 L 319.60938 114.82227 L 319.60938 121.625 L 314.81055 121.625 L 314.81055 128.42969 L 319.60938 128.42969 L 319.60938 135.23242 L 314.81055 135.23242 L 314.81055 142.01367 L 319.60938 142.01367 L 319.60938 148.81641 L 314.81055 148.81641 L 314.81055 155.62109 L 319.60938 155.62109 L 319.60938 162.42383 L 314.81055 162.42383 L 314.81055 169.20312 L 319.60938 169.20312 L 319.60938 176.00781 L 314.81055 176.00781 L 314.81055 169.22656 L 310.00977 169.22656 L 310.00977 176.00781 L 305.20898 176.00781 L 305.20898 169.22656 L 300.41016 169.22656 L 300.41016 176.00781 L 295.60938 176.00781 L 295.60938 169.22656 L 290.81055 169.22656 L 290.81055 176.00781 L 286.00977 176.00781 L 286.00977 169.22656 L 281.20898 169.22656 L 281.20898 176.00781 L 276.41016 176.00781 L 276.41016 169.22656 L 271.60938 169.22656 L 271.60938 176.00781 L 266.81055 176.00781 L 266.81055 169.22656 L 262.00977 169.22656 L 262.00977 176.00781 L 257.20898 176.00781 L 257.20898 169.22656 L 252.41016 169.22656 L 252.41016 176.00781 L 247.60938 176.00781 L 247.60938 169.20312 L 252.41016 169.20312 L 252.41016 162.42383 L 247.60938 162.42383 L 247.60938 155.62109 L 252.41016 155.62109 L 252.41016 148.81641 L 247.60938 148.81641 L 247.60938 142.01367 L 252.41016 142.01367 L 252.41016 135.23242 L 247.60938 135.23242 L 247.60938 128.42969 L 252.41016 128.42969 L 252.41016 121.625 L 247.60938 121.625 L 247.60938 114.82227 L 252.41016 114.82227 L 252.41016 108.04297 L 247.60938 108.04297 L 247.60938 101.23828 L 252.41016 101.23828 L 252.41016 94.435547 L 247.60938 94.435547 L 247.60938 87.630859 L 252.41016 87.630859 L 252.41016 80.828125 L 247.60938 80.828125 L 247.60938 74.023438 L 252.41016 74.023438 L 252.41016 67.220703 L 247.60938 67.220703 L 247.60938 60.417969 z M 252.41016 74.023438 L 252.41016 80.828125 L 257.20898 80.828125 L 257.20898 74.023438 L 252.41016 74.023438 z M 257.20898 74.023438 L 262.00977 74.023438 L 262.00977 67.220703 L 257.20898 67.220703 L 257.20898 74.023438 z M 262.00977 74.023438 L 262.00977 80.828125 L 266.81055 80.828125 L 266.81055 74.023438 L 262.00977 74.023438 z M 266.81055 74.023438 L 271.60938 74.023438 L 271.60938 67.220703 L 266.81055 67.220703 L 266.81055 74.023438 z M 271.60938 74.023438 L 271.60938 80.828125 L 276.41016 80.828125 L 276.41016 74.023438 L 271.60938 74.023438 z M 276.41016 74.023438 L 281.20898 74.023438 L 281.20898 67.220703 L 276.41016 67.220703 L 276.41016 74.023438 z M 281.20898 74.023438 L 281.20898 80.828125 L 286.00977 80.828125 L 286.00977 74.023438 L 281.20898 74.023438 z M 286.00977 74.023438 L 290.81055 74.023438 L 290.81055 67.220703 L 286.00977 67.220703 L 286.00977 74.023438 z M 290.81055 74.023438 L 290.81055 80.828125 L 295.60938 80.828125 L 295.60938 74.023438 L 290.81055 74.023438 z M 295.60938 74.023438 L 300.41016 74.023438 L 300.41016 67.220703 L 295.60938 67.220703 L 295.60938 74.023438 z M 300.41016 74.023438 L 300.41016 80.828125 L 305.20898 80.828125 L 305.20898 74.023438 L 300.41016 74.023438 z M 305.20898 74.023438 L 310.00977 74.023438 L 310.00977 67.220703 L 305.20898 67.220703 L 305.20898 74.023438 z M 310.00977 74.023438 L 310.00977 80.828125 L 314.81055 80.828125 L 314.81055 74.023438 L 310.00977 74.023438 z M 310.00977 80.828125 L 305.20898 80.828125 L 305.20898 87.630859 L 310.00977 87.630859 L 310.00977 80.828125 z M 310.00977 87.630859 L 310.00977 94.435547 L 314.81055 94.435547 L 314.81055 87.630859 L 310.00977 87.630859 z M 310.00977 94.435547 L 305.20898 94.435547 L 305.20898 101.23828 L 310.00977 101.23828 L 310.00977 94.435547 z M 310.00977 101.23828 L 310.00977 108.04297 L 314.81055 108.04297 L 314.81055 101.23828 L 310.00977 101.23828 z M 310.00977 108.04297 L 305.20898 108.04297 L 305.20898 114.82227 L 310.00977 114.82227 L 310.00977 108.04297 z M 305.20898 108.04297 L 305.20898 101.23828 L 300.41016 101.23828 L 300.41016 108.04297 L 305.20898 108.04297 z M 300.41016 108.04297 L 295.60938 108.04297 L 295.60938 114.82227 L 300.41016 114.82227 L 300.41016 108.04297 z M 295.60938 108.04297 L 295.60938 101.23828 L 290.81055 101.23828 L 290.81055 108.04297 L 295.60938 108.04297 z M 290.81055 108.04297 L 286.00977 108.04297 L 286.00977 114.82227 L 290.81055 114.82227 L 290.81055 108.04297 z M 286.00977 108.04297 L 286.00977 101.23828 L 281.20898 101.23828 L 281.20898 108.04297 L 286.00977 108.04297 z M 281.20898 108.04297 L 276.41016 108.04297 L 276.41016 114.82227 L 281.20898 114.82227 L 281.20898 108.04297 z M 276.41016 108.04297 L 276.41016 101.23828 L 271.60938 101.23828 L 271.60938 108.04297 L 276.41016 108.04297 z M 271.60938 108.04297 L 266.81055 108.04297 L 266.81055 114.82227 L 271.60938 114.82227 L 271.60938 108.04297 z M 266.81055 108.04297 L 266.81055 101.23828 L 262.00977 101.23828 L 262.00977 108.04297 L 266.81055 108.04297 z M 262.00977 108.04297 L 257.20898 108.04297 L 257.20898 114.82227 L 262.00977 114.82227 L 262.00977 108.04297 z M 257.20898 108.04297 L 257.20898 101.23828 L 252.41016 101.23828 L 252.41016 108.04297 L 257.20898 108.04297 z M 257.20898 101.23828 L 262.00977 101.23828 L 262.00977 94.435547 L 257.20898 94.435547 L 257.20898 101.23828 z M 257.20898 94.435547 L 257.20898 87.630859 L 252.41016 87.630859 L 252.41016 94.435547 L 257.20898 94.435547 z M 257.20898 87.630859 L 262.00977 87.630859 L 262.00977 80.828125 L 257.20898 80.828125 L 257.20898 87.630859 z M 262.00977 87.630859 L 262.00977 94.435547 L 266.81055 94.435547 L 266.81055 87.630859 L 262.00977 87.630859 z M 266.81055 87.630859 L 271.60938 87.630859 L 271.60938 80.828125 L 266.81055 80.828125 L 266.81055 87.630859 z M 271.60938 87.630859 L 271.60938 94.435547 L 276.41016 94.435547 L 276.41016 87.630859 L 271.60938 87.630859 z M 276.41016 87.630859 L 281.20898 87.630859 L 281.20898 80.828125 L 276.41016 80.828125 L 276.41016 87.630859 z M 281.20898 87.630859 L 281.20898 94.435547 L 286.00977 94.435547 L 286.00977 87.630859 L 281.20898 87.630859 z M 286.00977 87.630859 L 290.81055 87.630859 L 290.81055 80.828125 L 286.00977 80.828125 L 286.00977 87.630859 z M 290.81055 87.630859 L 290.81055 94.435547 L 295.60938 94.435547 L 295.60938 87.630859 L 290.81055 87.630859 z M 295.60938 87.630859 L 300.41016 87.630859 L 300.41016 80.828125 L 295.60938 80.828125 L 295.60938 87.630859 z M 300.41016 87.630859 L 300.41016 94.435547 L 305.20898 94.435547 L 305.20898 87.630859 L 300.41016 87.630859 z M 300.41016 94.435547 L 295.60938 94.435547 L 295.60938 101.23828 L 300.41016 101.23828 L 300.41016 94.435547 z M 290.81055 94.435547 L 286.00977 94.435547 L 286.00977 101.23828 L 290.81055 101.23828 L 290.81055 94.435547 z M 281.20898 94.435547 L 276.41016 94.435547 L 276.41016 101.23828 L 281.20898 101.23828 L 281.20898 94.435547 z M 271.60938 94.435547 L 266.81055 94.435547 L 266.81055 101.23828 L 271.60938 101.23828 L 271.60938 94.435547 z M 252.41016 121.625 L 257.20898 121.625 L 257.20898 114.8457 L 252.41016 114.8457 L 252.41016 121.625 z M 257.20898 121.625 L 257.20898 128.42969 L 262.00977 128.42969 L 262.00977 121.625 L 257.20898 121.625 z M 262.00977 121.625 L 266.81055 121.625 L 266.81055 114.8457 L 262.00977 114.8457 L 262.00977 121.625 z M 266.81055 121.625 L 266.81055 128.42969 L 271.60938 128.42969 L 271.60938 121.625 L 266.81055 121.625 z M 271.60938 121.625 L 276.41016 121.625 L 276.41016 114.8457 L 271.60938 114.8457 L 271.60938 121.625 z M 276.41016 121.625 L 276.41016 128.42969 L 281.20898 128.42969 L 281.20898 121.625 L 276.41016 121.625 z M 281.20898 121.625 L 286.00977 121.625 L 286.00977 114.8457 L 281.20898 114.8457 L 281.20898 121.625 z M 286.00977 121.625 L 286.00977 128.42969 L 290.81055 128.42969 L 290.81055 121.625 L 286.00977 121.625 z M 290.81055 121.625 L 295.60938 121.625 L 295.60938 114.8457 L 290.81055 114.8457 L 290.81055 121.625 z M 295.60938 121.625 L 295.60938 128.42969 L 300.41016 128.42969 L 300.41016 121.625 L 295.60938 121.625 z M 300.41016 121.625 L 305.20898 121.625 L 305.20898 114.8457 L 300.41016 114.8457 L 300.41016 121.625 z M 305.20898 121.625 L 305.20898 128.42969 L 310.00977 128.42969 L 310.00977 121.625 L 305.20898 121.625 z M 310.00977 121.625 L 314.81055 121.625 L 314.81055 114.8457 L 310.00977 114.8457 L 310.00977 121.625 z M 310.00977 128.42969 L 310.00977 135.23242 L 314.81055 135.23242 L 314.81055 128.42969 L 310.00977 128.42969 z M 310.00977 135.23242 L 305.20898 135.23242 L 305.20898 142.01367 L 310.00977 142.01367 L 310.00977 135.23242 z M 305.20898 135.23242 L 305.20898 128.42969 L 300.41016 128.42969 L 300.41016 135.23242 L 305.20898 135.23242 z M 300.41016 135.23242 L 295.60938 135.23242 L 295.60938 142.01367 L 300.41016 142.01367 L 300.41016 135.23242 z M 295.60938 135.23242 L 295.60938 128.42969 L 290.81055 128.42969 L 290.81055 135.23242 L 295.60938 135.23242 z M 290.81055 135.23242 L 286.00977 135.23242 L 286.00977 142.01367 L 290.81055 142.01367 L 290.81055 135.23242 z M 286.00977 135.23242 L 286.00977 128.42969 L 281.20898 128.42969 L 281.20898 135.23242 L 286.00977 135.23242 z M 281.20898 135.23242 L 276.41016 135.23242 L 276.41016 142.01367 L 281.20898 142.01367 L 281.20898 135.23242 z M 276.41016 135.23242 L 276.41016 128.42969 L 271.60938 128.42969 L 271.60938 135.23242 L 276.41016 135.23242 z M 271.60938 135.23242 L 266.81055 135.23242 L 266.81055 142.01367 L 271.60938 142.01367 L 271.60938 135.23242 z M 266.81055 135.23242 L 266.81055 128.42969 L 262.00977 128.42969 L 262.00977 135.23242 L 266.81055 135.23242 z M 262.00977 135.23242 L 257.20898 135.23242 L 257.20898 142.01367 L 262.00977 142.01367 L 262.00977 135.23242 z M 257.20898 135.23242 L 257.20898 128.42969 L 252.41016 128.42969 L 252.41016 135.23242 L 257.20898 135.23242 z M 252.41016 148.81641 L 257.20898 148.81641 L 257.20898 142.03711 L 252.41016 142.03711 L 252.41016 148.81641 z M 257.20898 148.81641 L 257.20898 155.62109 L 262.00977 155.62109 L 262.00977 148.81641 L 257.20898 148.81641 z M 262.00977 148.81641 L 266.81055 148.81641 L 266.81055 142.03711 L 262.00977 142.03711 L 262.00977 148.81641 z M 266.81055 148.81641 L 266.81055 155.62109 L 271.60938 155.62109 L 271.60938 148.81641 L 266.81055 148.81641 z M 271.60938 148.81641 L 276.41016 148.81641 L 276.41016 142.03711 L 271.60938 142.03711 L 271.60938 148.81641 z M 276.41016 148.81641 L 276.41016 155.62109 L 281.20898 155.62109 L 281.20898 148.81641 L 276.41016 148.81641 z M 281.20898 148.81641 L 286.00977 148.81641 L 286.00977 142.03711 L 281.20898 142.03711 L 281.20898 148.81641 z M 286.00977 148.81641 L 286.00977 155.62109 L 290.81055 155.62109 L 290.81055 148.81641 L 286.00977 148.81641 z M 290.81055 148.81641 L 295.60938 148.81641 L 295.60938 142.03711 L 290.81055 142.03711 L 290.81055 148.81641 z M 295.60938 148.81641 L 295.60938 155.62109 L 300.41016 155.62109 L 300.41016 148.81641 L 295.60938 148.81641 z M 300.41016 148.81641 L 305.20898 148.81641 L 305.20898 142.03711 L 300.41016 142.03711 L 300.41016 148.81641 z M 305.20898 148.81641 L 305.20898 155.62109 L 310.00977 155.62109 L 310.00977 148.81641 L 305.20898 148.81641 z M 310.00977 148.81641 L 314.81055 148.81641 L 314.81055 142.03711 L 310.00977 142.03711 L 310.00977 148.81641 z M 310.00977 155.62109 L 310.00977 162.42383 L 314.81055 162.42383 L 314.81055 155.62109 L 310.00977 155.62109 z M 310.00977 162.42383 L 305.20898 162.42383 L 305.20898 169.20312 L 310.00977 169.20312 L 310.00977 162.42383 z M 305.20898 162.42383 L 305.20898 155.62109 L 300.41016 155.62109 L 300.41016 162.42383 L 305.20898 162.42383 z M 300.41016 162.42383 L 295.60938 162.42383 L 295.60938 169.20312 L 300.41016 169.20312 L 300.41016 162.42383 z M 295.60938 162.42383 L 295.60938 155.62109 L 290.81055 155.62109 L 290.81055 162.42383 L 295.60938 162.42383 z M 290.81055 162.42383 L 286.00977 162.42383 L 286.00977 169.20312 L 290.81055 169.20312 L 290.81055 162.42383 z M 286.00977 162.42383 L 286.00977 155.62109 L 281.20898 155.62109 L 281.20898 162.42383 L 286.00977 162.42383 z M 281.20898 162.42383 L 276.41016 162.42383 L 276.41016 169.20312 L 281.20898 169.20312 L 281.20898 162.42383 z M 276.41016 162.42383 L 276.41016 155.62109 L 271.60938 155.62109 L 271.60938 162.42383 L 276.41016 162.42383 z M 271.60938 162.42383 L 266.81055 162.42383 L 266.81055 169.20312 L 271.60938 169.20312 L 271.60938 162.42383 z M 266.81055 162.42383 L 266.81055 155.62109 L 262.00977 155.62109 L 262.00977 162.42383 L 266.81055 162.42383 z M 262.00977 162.42383 L 257.20898 162.42383 L 257.20898 169.20312 L 262.00977 169.20312 L 262.00977 162.42383 z M 257.20898 162.42383 L 257.20898 155.62109 L 252.41016 155.62109 L 252.41016 162.42383 L 257.20898 162.42383 z " />
    <rect
       style="fill:none;fill-opacity:1;stroke:#ee37e6;stroke-width:4.704;stroke-linecap:butt;stroke-linejoin:round;stroke-miterlimit:4;stroke-dasharray:4.704, 4.704;stroke-dashoffset:0;stroke-opacity:1;paint-order:normal"
       id="rect1006-0"
       width="331.28787"
       height="187.29254"
       x="2.353512"
       y="2.3537412"
       rx="9.4653673" />
    <text
       xml:space="preserve"
       style="font-size:12px;line-height:1.25;font-family:'Zen Antique';-inkscape-font-specification:'Zen Antique';text-align:end;text-anchor:end;fill:#dbdbe4;fill-opacity:1"
       x="319.88312"
       y="21.159554"
       id="text4229"><tspan
         sodipodi:role="line"
         id="tspan4227"
         x="319.88312"
         y="21.159554"
         style="font-style:normal;font-variant:normal;font-weight:bold;font-stretch:normal;font-size:12px;font-family:'Source Sans Pro';-inkscape-font-specification:'Source Sans Pro Bold';text-align:end;text-anchor:end;fill:#dbdbe4;fill-opacity:1">Text Revealer</tspan></text>
    <text
       xml:space="preserve"
       style="font-style:italic;font-variant:normal;font-weight:normal;font-stretch:normal;font-size:7.33333px;line-height:1;font-family:'Cascadia Code PL';-inkscape-font-specification:'Cascadia Code PL Italic';letter-spacing:-0.5px;fill:#8f909c;fill-opacity:1"
       x="318.58838"
       y="31.500912"
       id="text12901"><tspan
         sodipodi:role="line"
         id="tspan12899"
         x="318.58838"
         y="31.500912"
         style="font-style:italic;font-variant:normal;font-weight:normal;font-stretch:normal;font-size:7.33333px;font-family:'Cascadia Code PL';-inkscape-font-specification:'Cascadia Code PL Italic';text-align:end;text-anchor:end;fill:#8f909c;fill-opacity:1">Align bottom left</tspan><tspan
         sodipodi:role="line"
         x="318.58838"
         y="38.834244"
         style="font-style:italic;font-variant:normal;font-weight:normal;font-stretch:normal;font-size:7.33333px;font-family:'Cascadia Code PL';-inkscape-font-specification:'Cascadia Code PL Italic';text-align:end;text-anchor:end;fill:#8f909c;fill-opacity:1"
         id="tspan14291">hole with bottom</tspan><tspan
         sodipodi:role="line"
         x="318.58838"
         y="46.167572"
         style="font-style:italic;font-variant:normal;font-weight:normal;font-stretch:normal;font-size:7.33333px;font-family:'Cascadia Code PL';-inkscape-font-specification:'Cascadia Code PL Italic';text-align:end;text-anchor:end;fill:#8f909c;fill-opacity:1"
         id="tspan21711">card to</tspan><tspan
         sodipodi:role="line"
         x="318.08838"
         y="53.5009"
         style="font-style:italic;font-variant:normal;font-weight:normal;font-stretch:normal;font-size:7.33333px;font-family:'Cascadia Code PL';-inkscape-font-specification:'Cascadia Code PL Italic';text-align:end;text-anchor:end;fill:#8f909c;fill-opacity:1"
         id="tspan47128">reveal text.</tspan></text>
    <text
       xml:space="preserve"
       style="font-size:8.1831px;line-height:1.25;font-family:'Zen Antique';-inkscape-font-specification:'Zen Antique';fill:#12d031;fill-opacity:1;stroke-width:0.204577"
       x="14.610695"
       y="174.62875"
       id="text38982"><tspan
         sodipodi:role="line"
         id="tspan38980"
         x="14.610695"
         y="174.62875"
         style="font-style:normal;font-variant:normal;font-weight:normal;font-stretch:normal;font-family:'Cascadia Code PL';-inkscape-font-specification:'Cascadia Code PL';fill:#12d031;fill-opacity:1;stroke-width:0.204577">JASONCODING|JASONCODING|JASONCODING|JASONCODING</tspan></text>
    <path
       style="fill:none;stroke:#595a63;stroke-width:2.49603;stroke-linecap:butt;stroke-linejoin:miter;stroke-miterlimit:4;stroke-dasharray:9.98409, 2.49603;stroke-dashoffset:0;stroke-opacity:1"
       d="M 238.16326,13.048543 V 161.80613"
       id="path48047" />
  </g>
</svg>
