<?xml version="1.0" encoding="UTF-8" standalone="no"?>
<svg
   width="1200"
   height="630"
   viewBox="0 0 317.49999 166.6875"
   version="1.1"
   id="svg8"
   inkscape:export-filename="C:\Users\nakam\Documents\GitHub\jasoncoding\src\images\splash.jpg"
   inkscape:export-xdpi="96"
   inkscape:export-ydpi="96"
   inkscape:version="1.1.2 (0a00cf5339, 2022-02-04, custom)"
   sodipodi:docname="splash.svg"
   xmlns:inkscape="http://www.inkscape.org/namespaces/inkscape"
   xmlns:sodipodi="http://sodipodi.sourceforge.net/DTD/sodipodi-0.dtd"
   xmlns:xlink="http://www.w3.org/1999/xlink"
   xmlns="http://www.w3.org/2000/svg"
   xmlns:svg="http://www.w3.org/2000/svg"
   xmlns:rdf="http://www.w3.org/1999/02/22-rdf-syntax-ns#"
   xmlns:cc="http://creativecommons.org/ns#"
   xmlns:dc="http://purl.org/dc/elements/1.1/">
  <defs
     id="defs2">
    <linearGradient
       id="linearGradient2963"
       inkscape:collect="always">
      <stop
         id="stop2959"
         offset="0"
         style="stop-color:#b723de;stop-opacity:1" />
      <stop
         style="stop-color:#ce1e93;stop-opacity:0.53413653"
         offset="0.49943492"
         id="stop2965" />
      <stop
         id="stop2961"
         offset="1"
         style="stop-color:#ff14d9;stop-opacity:0" />
    </linearGradient>
    <linearGradient
       id="linearGradient2891-2-9"
       inkscape:collect="always">
      <stop
         id="stop2887"
         offset="0"
         style="stop-color:#8123de;stop-opacity:1" />
      <stop
         id="stop2889"
         offset="1"
         style="stop-color:#a919bc;stop-opacity:0" />
    </linearGradient>
    <linearGradient
       inkscape:collect="always"
       id="linearGradient2857">
      <stop
         style="stop-color:#b723de;stop-opacity:1"
         offset="0"
         id="stop2853" />
      <stop
         style="stop-color:#ff14ac;stop-opacity:0"
         offset="1"
         id="stop2855" />
    </linearGradient>
    <linearGradient
       id="linearGradient2832"
       inkscape:swatch="solid">
      <stop
         style="stop-color:#212121;stop-opacity:1;"
         offset="0"
         id="stop2830" />
    </linearGradient>
    <radialGradient
       inkscape:collect="always"
       xlink:href="#linearGradient2857"
       id="radialGradient2861"
       cx="123.46404"
       cy="119.21364"
       fx="155.93327"
       fy="108.34564"
       r="87.969742"
       gradientTransform="matrix(0.5093766,0.67765757,-0.50178239,0.43460204,117.6106,49.196182)"
       gradientUnits="userSpaceOnUse" />
    <radialGradient
       gradientUnits="userSpaceOnUse"
       gradientTransform="matrix(-0.55699558,0.78686363,-0.64577668,-0.38229605,240.02004,131.55716)"
       r="87.969742"
       fy="155.14781"
       fx="158.89011"
       cy="119.21364"
       cx="123.46404"
       id="radialGradient2861-1"
       xlink:href="#linearGradient2891-2-9"
       inkscape:collect="always" />
    <radialGradient
       inkscape:collect="always"
       xlink:href="#linearGradient2963"
       id="radialGradient2957"
       gradientUnits="userSpaceOnUse"
       gradientTransform="matrix(0.5093766,0.67765757,-0.50178239,0.43460204,146.93385,48.672559)"
       cx="123.46404"
       cy="119.21364"
       fx="171.90063"
       fy="94.292023"
       r="87.969742" />
  </defs>
  <sodipodi:namedview
     id="base"
     pagecolor="#ffffff"
     bordercolor="#666666"
     borderopacity="1.0"
     inkscape:pageopacity="1"
     inkscape:pageshadow="2"
     inkscape:zoom="0.36473616"
     inkscape:cx="714.2149"
     inkscape:cy="379.72654"
     inkscape:document-units="mm"
     inkscape:current-layer="layer1"
     inkscape:document-rotation="0"
     showgrid="false"
     units="px"
     inkscape:window-width="1274"
     inkscape:window-height="798"
     inkscape:window-x="868"
     inkscape:window-y="134"
     inkscape:window-maximized="0"
     inkscape:pagecheckerboard="0" />
  <metadata
     id="metadata5">
    <rdf:RDF>
      <cc:Work
         rdf:about="">
        <dc:format>image/svg+xml</dc:format>
        <dc:type
           rdf:resource="http://purl.org/dc/dcmitype/StillImage" />
        <dc:title />
      </cc:Work>
    </rdf:RDF>
  </metadata>
  <g
     inkscape:label="Layer 1"
     inkscape:groupmode="layer"
     id="layer1">
    <g
       id="g2972"
       transform="matrix(0.84313033,-0.69595641,0.69595641,0.84313033,-39.633421,-4.2239775)"
       style="opacity:0.974194">
      <ellipse
         ry="86.137039"
         rx="89.278816"
         cy="183.0085"
         cx="151.06709"
         id="path910"
         style="opacity:0.316129;fill:url(#radialGradient2957);fill-opacity:1;fill-rule:nonzero;stroke-width:0.267077" />
      <ellipse
         style="opacity:0.154839;fill:url(#radialGradient2861-1);fill-opacity:1;fill-rule:nonzero;stroke-width:0.330508"
         id="path910-6"
         cx="95.562355"
         cy="181.69943"
         rx="108.91492"
         ry="108.12948" />
    </g>
    <g
       transform="matrix(0.70514967,0,0,0.70514967,4.6545436,1.9130117)"
       id="g883"
       style="fill:#000000;fill-opacity:1;stroke:#000000;stroke-width:0.448637;stroke-miterlimit:4;stroke-dasharray:none;stroke-opacity:0.995984">
      <g
         style="font-size:80.4866px;line-height:1.25;font-family:'Zen Antique';-inkscape-font-specification:'Zen Antique';letter-spacing:-5.4861px;fill:#000000;fill-opacity:1;stroke:#000000;stroke-width:0.448637;stroke-miterlimit:4;stroke-dasharray:none;stroke-opacity:0.995984"
         id="text835"
         transform="scale(0.94157273,1.0620528)"
         aria-label="JASON">
        <path
           class="svg-elem-1"
           id="path1259"
           style="fill:#000000;fill-opacity:1;stroke:#000000;stroke-width:0.448637;stroke-miterlimit:4;stroke-dasharray:none;stroke-opacity:0.995984"
           d="m 20.100023,68.915031 q -6.358442,0 -9.980339,-3.219464 -3.5414105,-3.299951 -3.5414105,-8.209634 0,-2.817031 1.4487588,-4.829196 1.5292455,-2.012165 4.5072497,-2.012165 2.334112,0 3.863357,1.529246 1.609732,1.529245 1.609732,3.78287 0,1.609732 -0.804866,2.334111 -0.724379,0.72438 -1.690219,1.126813 -0.965839,0.321946 -1.770705,0.804866 -0.724379,0.402433 -0.724379,1.448759 0,1.529245 1.690218,2.575571 1.770706,1.046326 4.74871,1.046326 4.829196,0 6.760875,-3.380437 2.012165,-3.460924 2.012165,-10.221799 V 16.598739 q 0,-2.414598 -1.368273,-3.621897 -1.287785,-1.207299 -4.748709,-1.207299 -1.207299,0 -1.207299,-1.046326 0,-1.2072989 1.207299,-1.2072989 0.321946,0 1.690218,0.080487 1.368273,0 3.138978,0.080487 1.851192,0 3.460924,0.080487 1.690219,0 2.656058,0 0.965839,0 2.656058,0 1.690218,-0.080487 3.54141,-0.080487 1.851192,-0.080487 3.219464,-0.080487 1.448759,-0.080487 1.770706,-0.080487 1.046325,0 1.046325,1.2072989 0,0.321947 -0.241459,0.72438 -0.24146,0.321946 -0.804866,0.321946 -3.460924,0 -4.909683,1.207299 -1.368272,1.126812 -1.368272,3.621897 v 34.689726 q 0,6.197468 -2.334112,10.141312 -2.253625,3.863357 -6.277955,5.714549 -4.02433,1.770705 -9.255959,1.770705 z" />
        <path
           class="svg-elem-2"
           id="path1261"
           style="fill:#000000;fill-opacity:1;stroke:#000000;stroke-width:0.448637;stroke-miterlimit:4;stroke-dasharray:none;stroke-opacity:0.995984"
           d="m 39.598727,68.029678 q -1.046326,0 -1.046326,-1.046325 0,-1.287786 1.046326,-1.287786 2.817031,0 4.426763,-0.965839 1.609732,-1.046326 2.897518,-3.863357 0.643892,-1.287786 1.851191,-4.346277 1.287786,-3.058491 2.897518,-7.324281 1.690219,-4.26579 3.541411,-9.094986 1.851191,-4.829196 3.702383,-9.658392 1.851192,-4.829196 3.380438,-8.934013 1.609732,-4.185303 2.656058,-7.163308 1.126812,-2.978004 1.529245,-4.02433 0.402433,-1.0463257 0.885353,-1.3682721 0.563406,-0.3219464 1.851191,-0.3219464 1.287786,0 1.851192,0.3219464 0.563407,0.3219464 0.96584,1.3682721 0.643892,1.609732 2.012165,5.231629 1.448759,3.621897 3.29995,8.370607 1.851192,4.74871 3.863357,9.980339 2.012165,5.151142 3.863357,10.060825 1.931679,4.909683 3.460924,8.934013 1.529246,3.943844 2.414598,6.116982 1.448759,3.702384 3.058491,5.231629 1.690219,1.448759 3.219464,1.448759 1.046326,0 1.046326,1.287786 0,1.046325 -1.046326,1.046325 -0.804866,0 -3.29995,0 -2.495085,-0.08049 -6.680388,-0.08049 -3.460924,0 -6.599902,0.08049 -3.138977,0 -3.943843,0 -1.046326,0 -1.046326,-1.046325 0,-1.287786 1.046326,-1.287786 2.575571,0 3.54141,-0.804866 1.046326,-0.885353 1.046326,-2.012165 0,-1.207299 -0.402433,-2.012165 -0.08049,-0.160974 -0.563406,-1.609732 -0.48292,-1.448759 -1.207299,-3.460924 -0.643893,-2.092652 -1.368273,-4.104817 -0.724379,-2.092652 -1.207299,-3.541411 H 54.810695 q -0.48292,1.609733 -1.287786,4.104817 -0.724379,2.414598 -1.368272,4.74871 -0.563407,2.334111 -0.563407,3.78287 0,2.978004 1.448759,3.943844 1.529246,0.965839 4.185304,0.965839 1.046326,0 1.046326,1.287786 0,1.046325 -1.046326,1.046325 -0.804866,0 -3.058491,0 -2.173138,-0.08049 -5.714549,-0.08049 -3.138978,0 -5.553576,0.08049 -2.414598,0 -3.29995,0 z M 55.85702,45.49343 H 75.495752 L 66.078819,18.932851 Z" />
        <path
           class="svg-elem-3"
           id="path1263"
           style="fill:#000000;fill-opacity:1;stroke:#000000;stroke-width:0.448637;stroke-miterlimit:4;stroke-dasharray:none;stroke-opacity:0.995984"
           d="m 121.39532,68.995518 q -4.34628,0 -7.96817,-1.046326 -3.6219,-1.046326 -6.11699,-2.253625 -2.49508,-1.287786 -3.62189,-1.770705 -1.04633,0.804866 -1.8512,1.448758 -0.72437,0.643893 -1.851187,1.770706 -0.804866,0.804866 -1.529246,0.482919 -0.724379,-0.402433 -0.724379,-1.287785 V 50.644572 q 0,-0.965839 1.046326,-1.126812 1.126812,-0.160974 1.368276,0.563406 1.52924,4.50725 4.66822,8.04866 3.13898,3.541411 7.48525,5.553576 4.42677,1.931678 9.49742,1.931678 4.18531,0 6.76088,-1.690218 2.65605,-1.690219 3.94384,-4.26579 1.28779,-2.656058 1.28779,-5.23163 0,-3.460923 -1.93168,-5.553575 -1.93168,-2.173138 -5.07066,-3.460924 -3.13898,-1.368272 -7.00233,-2.334112 -3.78287,-0.965839 -7.56574,-2.092651 -3.78287,-1.126813 -6.92185,-2.897518 -3.13898,-1.851192 -5.07066,-4.829196 -1.931676,-3.058491 -1.931676,-7.726714 0,-5.553576 2.656056,-9.255959 2.73655,-3.782871 7.2438,-5.714549 4.50725,-1.9316785 9.73888,-1.9316785 3.38043,0 6.43892,0.804866 3.13898,0.8048665 5.63407,1.9316785 2.49508,1.046326 3.86335,1.931678 0.96584,-0.885352 1.60973,-1.448758 0.72438,-0.643893 1.12682,-0.96584 0.80486,-0.643892 1.44876,-0.241459 0.64389,0.321946 0.64389,1.368272 v 13.763209 q 0,1.046326 -1.04633,1.287786 -0.96584,0.241459 -1.36827,-0.804866 -1.7707,-3.943844 -4.50725,-7.324281 -2.65606,-3.380438 -6.19747,-5.473089 -3.46092,-2.092652 -7.64622,-2.092652 -3.46093,0 -6.11699,1.529245 -2.65605,1.448759 -4.1853,3.863357 -1.52925,2.414598 -1.52925,5.392603 0,3.380437 1.93168,5.392602 2.01217,2.012165 5.23163,3.219464 3.21947,1.207299 7.08282,2.092652 3.94385,0.885353 7.8072,2.012165 3.86336,1.046326 7.08282,2.897518 3.21947,1.851192 5.15115,4.990169 2.01216,3.058491 2.01216,8.04866 0,5.714549 -2.73654,9.819366 -2.73655,4.104817 -7.48526,6.277955 -4.74871,2.092652 -10.7852,2.092652 z" />
        <path
           class="svg-elem-4"
           id="path1265"
           style="fill:#000000;fill-opacity:1;stroke:#000000;stroke-width:0.448637;stroke-miterlimit:4;stroke-dasharray:none;stroke-opacity:0.995984"
           d="m 171.57199,68.995518 q -7.8072,0 -13.8437,-3.782871 -5.95601,-3.78287 -9.33644,-10.543745 -3.38044,-6.841361 -3.38044,-15.85586 0,-9.175473 3.54141,-15.936348 3.54141,-6.760874 9.49742,-10.463258 6.03649,-3.7828705 13.52175,-3.7828705 7.48525,0 13.44126,3.7828705 6.0365,3.702384 9.57791,10.463258 3.54141,6.760875 3.54141,15.936348 0,9.014499 -3.46093,15.85586 -3.38043,6.760875 -9.33644,10.543745 -5.95601,3.782871 -13.76321,3.782871 z m 0,-2.978005 q 4.34628,0 7.8072,-2.495084 3.46092,-2.575572 5.47309,-8.53158 2.01216,-5.956009 2.01216,-16.177807 0,-10.302286 -2.01216,-16.258294 -2.01217,-5.956009 -5.47309,-8.53158 -3.46092,-2.575571 -7.8072,-2.575571 -4.34628,0 -7.8072,2.575571 -3.46093,2.575571 -5.47309,8.53158 -2.01217,5.956008 -2.01217,16.258294 0,10.221798 2.01217,16.177807 2.01216,5.956008 5.47309,8.53158 3.46092,2.495084 7.8072,2.495084 z" />
        <path
           class="svg-elem-5"
           id="path1267"
           style="fill:#000000;fill-opacity:1;stroke:#000000;stroke-width:0.448637;stroke-miterlimit:4;stroke-dasharray:none;stroke-opacity:0.995984"
           d="m 246.78,68.271138 q -2.17314,0.08049 -3.21947,-0.160973 -0.96584,-0.24146 -1.60973,-1.287786 -1.04633,-1.609732 -3.13898,-4.909682 -2.01216,-3.380438 -4.74871,-7.726714 -2.73654,-4.426763 -5.79503,-9.25596 -2.97801,-4.909682 -5.95601,-9.658392 -2.97801,-4.74871 -5.55358,-8.77304 -2.49508,-4.104816 -4.26579,-6.841361 -1.7707,-2.817031 -2.33411,-3.621897 v 38.794542 q 0,6.116982 2.33411,8.53158 2.4146,2.334112 5.63407,2.334112 0.40243,0 0.72437,0.321946 0.40244,0.24146 0.40244,0.804866 0,0.563407 -0.40244,0.885353 -0.32194,0.321946 -0.72437,0.321946 -0.80487,0 -3.29996,-0.08049 -2.49508,-0.160973 -6.03649,-0.160973 -4.1853,0 -6.35844,0.160973 -2.09265,0.08049 -2.97801,0.08049 -1.04632,0 -1.04632,-1.207299 0,-1.126812 1.04632,-1.126812 3.38044,0 5.47309,-2.414598 2.17314,-2.414598 2.17314,-8.370607 V 17.403605 q 0,-2.897518 -1.28779,-4.185303 -1.28778,-1.368272 -4.58773,-1.368272 -1.04633,0 -1.04633,-1.207299 0,-1.0463263 1.04633,-1.0463263 0.64389,0 4.26579,0.080487 3.70238,0.080487 9.65839,0.080487 1.36827,0 2.01217,0.4024333 0.64389,0.402433 1.20729,1.368272 0.32195,0.563406 1.93168,3.058491 1.60974,2.495085 4.02433,6.277955 2.49509,3.78287 5.31212,8.209634 2.89752,4.426763 5.79503,8.934013 2.89752,4.507249 5.39261,8.451093 2.57557,3.863357 4.34627,6.599901 1.77071,2.656058 2.33412,3.541411 V 22.796208 q 0,-5.875522 -2.25363,-8.370607 -2.17314,-2.575571 -6.03649,-2.575571 -1.04633,0 -1.04633,-1.207299 0,-1.0463263 1.04633,-1.0463263 0.88535,0 3.46092,0.1609732 2.57557,0.080487 6.11698,0.080487 3.46092,0 5.95601,-0.080487 2.49508,-0.1609732 3.29995,-0.1609732 1.2073,0 1.2073,1.0463263 0,1.207299 -1.2073,1.207299 -3.05849,0 -5.31212,2.495084 -2.17313,2.414598 -2.17313,8.451094 v 30.584909 q 0,4.26579 0.32194,7.243794 0.32195,2.897518 0.48292,5.473089 0.0805,0.885353 -0.64389,1.529245 -0.64389,0.563407 -3.94384,0.643893 z" />
      </g>
      <g
         style="font-size:73.1686px;line-height:1.25;font-family:'Zen Antique';-inkscape-font-specification:'Zen Antique';letter-spacing:-4.98728px;fill:#000000;fill-opacity:1;stroke:#000000;stroke-width:0.448637;stroke-miterlimit:4;stroke-dasharray:none;stroke-opacity:0.995984"
         id="text835-6"
         transform="scale(0.85596205,1.1682761)"
         aria-label="CODING">
        <path
           class="svg-elem-6"
           id="path1270"
           style="fill:#000000;fill-opacity:1;stroke:#000000;stroke-width:0.448637;stroke-miterlimit:4;stroke-dasharray:none;stroke-opacity:0.995984"
           d="m 33.746725,121.23497 q -7.390029,0 -13.09718,-2.99991 -5.633982,-3.07308 -8.853401,-9.14608 -3.1462495,-6.07299 -3.1462495,-15.145896 0,-8.853401 3.3657555,-14.999564 3.438924,-6.146162 9.146075,-9.365581 5.707151,-3.219418 12.585,-3.219418 2.707238,0 4.975465,0.804854 2.268227,0.731686 3.951104,1.682878 1.682878,0.951192 2.63407,1.756046 1.02436,0.731687 1.170698,0.731687 1.170697,-0.951192 2.048721,-1.756047 0.878023,-0.804855 1.390203,-1.170698 0.658517,-0.585348 1.463372,-0.292674 0.804855,0.292674 0.804855,1.170698 v 13.755697 q 0,0.878023 -1.024361,1.097529 -1.02436,0.219506 -1.390203,-0.51218 -1.390204,-3.512093 -3.585262,-6.877849 -2.195058,-3.438924 -5.268139,-5.633982 -3.073081,-2.268227 -7.170523,-2.268227 -3.585262,0 -7.024186,2.63407 -3.365756,2.560901 -5.633982,8.121715 -2.195058,5.487645 -2.195058,14.341046 0,6.658346 1.317035,11.267966 1.317034,4.60962 3.512092,7.39003 2.195059,2.7804 4.902297,4.02427 2.780407,1.24387 5.633982,1.24387 6.731512,0 10.97529,-3.07308 4.316948,-3.14625 7.243692,-9.36559 0.365843,-0.65851 0.951192,-0.87802 0.585349,-0.29267 1.097529,0.0732 0.51218,0.29267 0.731686,0.80485 0.292674,0.51218 0.07317,1.09753 -2.560902,6.65835 -7.902209,10.68262 -5.26814,4.02427 -13.682529,4.02427 z" />
        <path
           class="svg-elem-7"
           id="path1272"
           style="fill:#000000;fill-opacity:1;stroke:#000000;stroke-width:0.448637;stroke-miterlimit:4;stroke-dasharray:none;stroke-opacity:0.995984"
           d="m 80.683999,121.23497 q -7.097354,0 -12.585,-3.43892 -5.414476,-3.43893 -8.487557,-9.58509 -3.073082,-6.21933 -3.073082,-14.414214 0,-8.34122 3.219419,-14.487383 3.219418,-6.146162 8.633895,-9.511918 5.487645,-3.438924 12.292325,-3.438924 6.80468,0 12.219157,3.438924 5.487645,3.365756 8.707064,9.511918 3.21942,6.146163 3.21942,14.487383 0,8.194884 -3.14625,14.414214 -3.073084,6.14616 -8.48756,9.58509 -5.414477,3.43892 -12.511831,3.43892 z m 0,-2.70724 q 3.951105,0 7.097354,-2.26822 3.14625,-2.3414 4.975465,-7.75587 1.829215,-5.41448 1.829215,-14.706894 0,-9.365581 -1.829215,-14.780057 -1.829215,-5.414477 -4.975465,-7.755872 -3.146249,-2.341395 -7.097354,-2.341395 -3.951105,0 -7.097354,2.341395 -3.14625,2.341395 -4.975465,7.755872 -1.829215,5.414476 -1.829215,14.780057 0,9.292414 1.829215,14.706894 1.829215,5.41447 4.975465,7.75587 3.146249,2.26822 7.097354,2.26822 z" />
        <path
           class="svg-elem-8"
           id="path1274"
           style="fill:#000000;fill-opacity:1;stroke:#000000;stroke-width:0.448637;stroke-miterlimit:4;stroke-dasharray:none;stroke-opacity:0.995984"
           d="m 106.61617,120.35695 q -1.02436,0 -1.02436,-1.02436 0,-1.02436 1.02436,-1.02436 3.80477,0 5.1218,-1.09753 1.31704,-1.1707 1.31704,-3.36576 V 73.675381 q 0,-2.12189 -1.24387,-3.219419 -1.24387,-1.170697 -5.34131,-1.170697 -0.95119,0 -0.95119,-1.024361 0,-1.02436 0.95119,-1.02436 0.65852,0 3.7316,0.146337 3.14625,0.07317 7.31686,0.07317 4.82913,0 7.60954,-0.07317 2.85357,-0.146337 4.31694,-0.146337 4.60963,0 8.99974,1.463372 4.39012,1.390203 7.90221,4.536453 3.51209,3.14625 5.56081,8.268052 2.12189,5.048634 2.12189,12.365494 0,7.024185 -2.12189,12.072815 -2.04872,5.04864 -5.63398,8.26806 -3.51209,3.14625 -7.90221,4.68279 -4.31694,1.46337 -8.92657,1.46337 -1.46337,0 -4.31694,-0.0732 -2.85358,-0.0732 -7.75588,-0.0732 -4.09744,0 -7.09735,0.0732 -2.92674,0.0732 -3.65843,0.0732 z m 16.82878,-2.26823 h 4.31695 q 2.99991,0 5.85348,-1.09753 2.85358,-1.17069 5.19497,-3.87793 2.3414,-2.78041 3.7316,-7.4632 1.39021,-4.68279 1.39021,-11.780145 0,-7.390029 -1.24387,-12.145988 -1.1707,-4.755959 -3.29259,-7.390029 -2.12189,-2.707238 -4.82912,-3.731599 -2.63407,-1.097529 -5.56082,-1.097529 h -7.02418 v 47.12058 q 0,1.60971 1.46337,1.46337 z" />
        <path
           class="svg-elem-9"
           id="path1276"
           style="fill:#000000;fill-opacity:1;stroke:#000000;stroke-width:0.448637;stroke-miterlimit:4;stroke-dasharray:none;stroke-opacity:0.995984"
           d="m 154.86019,120.35695 q -0.95119,0 -0.95119,-1.1707 0,-0.95119 0.95119,-0.95119 3.80477,0 5.48765,-0.80486 1.68288,-0.80485 1.68288,-3.43892 V 73.455875 q 0,-2.414564 -1.60971,-3.292587 -1.53654,-0.878023 -5.56082,-0.878023 -0.95119,0 -0.95119,-1.024361 0,-1.02436 0.95119,-1.02436 1.24387,0 3.21942,0.07317 2.04872,0.07317 4.31695,0.146338 2.26823,0 4.17061,0 1.82921,0 4.09744,0 2.3414,-0.07317 4.39012,-0.146338 2.12189,-0.07317 3.29258,-0.07317 1.09753,0 1.09753,1.02436 0,1.024361 -1.09753,1.024361 -3.87793,0 -5.56081,0.878023 -1.60971,0.878023 -1.60971,3.292587 v 40.535405 q 0,2.63407 1.75605,3.43892 1.75604,0.80486 5.41447,0.80486 1.09753,0 1.09753,0.95119 0,1.1707 -1.09753,1.1707 -1.17069,0 -3.29258,-0.0732 -2.04872,-0.0732 -4.39012,-0.14634 -2.26823,-0.0732 -4.09744,-0.0732 -1.90238,0 -4.17061,0.0732 -2.26823,0.0732 -4.31695,0.14634 -1.97555,0.0732 -3.21942,0.0732 z" />
        <path
           class="svg-elem-10"
           id="path1278"
           style="fill:#000000;fill-opacity:1;stroke:#000000;stroke-width:0.448637;stroke-miterlimit:4;stroke-dasharray:none;stroke-opacity:0.995984"
           d="m 222.53733,120.57645 q -1.97555,0.0732 -2.92674,-0.14633 -0.87802,-0.21951 -1.46337,-1.1707 -0.95119,-1.46337 -2.85358,-4.46328 -1.82921,-3.07309 -4.31694,-7.02419 -2.48774,-4.02427 -5.26814,-8.41439 -2.70724,-4.463285 -5.41448,-8.780232 -2.70724,-4.316948 -5.04863,-7.975378 -2.26823,-3.731598 -3.87794,-6.219331 -1.60971,-2.560901 -2.12189,-3.292587 V 108.3573 q 0,5.56081 2.12189,7.75587 2.19506,2.12189 5.1218,2.12189 0.36585,0 0.65852,0.29267 0.36584,0.21951 0.36584,0.73169 0,0.51218 -0.36584,0.80485 -0.29267,0.29268 -0.65852,0.29268 -0.73168,0 -2.99991,-0.0732 -2.26823,-0.14634 -5.48765,-0.14634 -3.80476,0 -5.78031,0.14634 -1.90239,0.0732 -2.70724,0.0732 -0.9512,0 -0.9512,-1.09753 0,-1.02436 0.9512,-1.02436 3.07308,0 4.97546,-2.19506 1.97555,-2.19506 1.97555,-7.60953 V 74.333898 q 0,-2.634069 -1.17069,-3.804767 -1.1707,-1.243866 -4.17061,-1.243866 -0.9512,0 -0.9512,-1.097529 0,-0.951192 0.9512,-0.951192 0.58534,0 3.87793,0.07317 3.36576,0.07317 8.78023,0.07317 1.24387,0 1.82922,0.365843 0.58535,0.365843 1.09753,1.243866 0.29267,0.51218 1.75604,2.780407 1.46338,2.268227 3.65843,5.707151 2.26823,3.438924 4.82913,7.463197 2.63407,4.024274 5.26814,8.121715 2.63407,4.097442 4.9023,7.682697 2.34139,3.5121 3.9511,5.99983 1.60971,2.41456 2.12189,3.21942 V 79.236195 q 0,-5.341308 -2.04872,-7.609535 -1.97555,-2.341395 -5.48764,-2.341395 -0.9512,0 -0.9512,-1.097529 0,-0.951192 0.9512,-0.951192 0.80485,0 3.14625,0.146337 2.34139,0.07317 5.56081,0.07317 3.14625,0 5.41448,-0.07317 2.26822,-0.146337 2.99991,-0.146337 1.09753,0 1.09753,0.951192 0,1.097529 -1.09753,1.097529 -2.78041,0 -4.82913,2.268226 -1.97555,2.195058 -1.97555,7.682704 v 27.804065 q 0,3.87794 0.29267,6.58518 0.29268,2.63407 0.43902,4.97546 0.0732,0.80486 -0.58535,1.39021 -0.58535,0.51218 -3.58527,0.58534 z" />
        <path
           class="svg-elem-11"
           id="path1280"
           style="fill:#000000;fill-opacity:1;stroke:#000000;stroke-width:0.448637;stroke-miterlimit:4;stroke-dasharray:none;stroke-opacity:0.995984"
           d="m 259.52254,121.23497 q -7.02418,0 -12.51183,-3.07308 -5.48764,-3.07308 -8.63389,-9.21924 -3.14625,-6.21933 -3.14625,-15.438578 0,-6.365668 2.12189,-11.341133 2.12189,-5.048634 5.70715,-8.560727 3.58526,-3.512093 7.97538,-5.341308 4.46328,-1.902383 9.14607,-1.902383 2.63407,0 5.04863,0.658517 2.41457,0.585349 4.09745,1.390203 1.75604,0.731686 2.12189,1.097529 0.80485,-0.365843 2.19505,-1.02436 1.39021,-0.658517 1.82922,-0.731686 0.65852,-0.219506 1.46337,0.146337 0.87802,0.292675 0.87802,1.170698 v 13.316685 q 0,0.731686 -1.02436,0.951192 -0.95119,0.146337 -1.24386,-0.51218 -1.68288,-3.438924 -3.80477,-6.585174 -2.12189,-3.219419 -4.9023,-5.268139 -2.7804,-2.048721 -6.65834,-2.048721 -2.70724,0 -5.34131,1.317034 -2.5609,1.243867 -4.68279,4.170611 -2.12189,2.853575 -3.43892,7.609534 -1.24387,4.682791 -1.24387,11.487471 0,9.438748 1.82922,14.926398 1.82921,5.48764 5.04863,7.82904 3.21942,2.26822 7.31686,2.26822 5.99983,0 8.41439,-3.29258 2.41456,-3.36576 2.41456,-8.6339 v -3.21942 q 0,-1.90238 -0.95119,-2.92674 -0.95119,-1.024361 -4.24378,-1.024361 -0.51218,0 -0.80485,-0.292675 -0.29268,-0.365843 -0.29268,-0.731686 0,-1.097529 1.09753,-1.097529 0.51218,0 2.04872,0.07317 1.60971,0.07317 3.58527,0.146337 2.04872,0.07317 3.87793,0.07317 2.78041,0 5.56082,-0.146338 2.7804,-0.146337 3.73159,-0.146337 0.51218,0 0.87803,0.292675 0.43901,0.292674 0.43901,0.804854 0,0.439012 -0.43901,0.731686 -0.36585,0.292675 -0.87803,0.292675 -2.04872,0 -3.36575,0.804849 -1.31704,0.73169 -1.31704,3.36576 0,6.21933 0.21951,10.38994 0.2195,4.09744 0.2195,4.60962 0,0.80486 -0.87802,1.02436 -0.80485,0.14634 -1.1707,-0.29267 -0.29267,-0.36584 -1.09752,-1.39021 -0.73169,-1.02436 -1.60971,-2.04872 -0.80486,-1.02436 -1.31704,-1.46337 -1.24387,1.60971 -3.21942,3.21942 -1.97555,1.53654 -4.75596,2.5609 -2.70723,1.02436 -6.2925,1.02436 z" />
      </g>
    </g>
    <g
       inkscape:label="Layer 1"
       id="layer1-5"
       transform="matrix(0.43381527,0.282053,-0.282053,0.43381527,248.11962,-10.064207)">
      <circle
         style="opacity:1;fill:#212121;fill-opacity:1;stroke:none;stroke-width:0.254"
         id="path971"
         cx="90.536209"
         cy="90.196648"
         r="89.30809" />
      <g
         style="fill:#941ff1;fill-opacity:1"
         id="g945"
         transform="matrix(1.0299899,0,0,0.86910417,9.8102277,7.6768399)">
        <text
           transform="scale(0.89539967,1.1168197)"
           id="text915"
           y="138.88162"
           x="7.609694"
           style="font-size:149.704px;line-height:1.05;font-family:'Zen Antique';-inkscape-font-specification:'Zen Antique';letter-spacing:-16.1124px;fill:#941ff1;fill-opacity:1;stroke-width:0.779709"
           xml:space="preserve"><tspan
             style="font-size:149.704px;fill:#941ff1;fill-opacity:1;stroke-width:0.779709"
             y="138.88162"
             x="7.609694"
             id="tspan913"
             sodipodi:role="line">J</tspan></text>
        <text
           xml:space="preserve"
           style="font-size:147.534px;line-height:1.05;font-family:'Zen Antique';-inkscape-font-specification:'Zen Antique';letter-spacing:-15.8789px;fill:#941ff1;fill-opacity:1;stroke-width:0.76841"
           x="58.849255"
           y="138.92738"
           id="text915-5"
           transform="scale(0.89539967,1.1168197)"><tspan
             sodipodi:role="line"
             id="tspan913-1"
             x="58.849255"
             y="138.92738"
             style="font-size:147.534px;fill:#941ff1;fill-opacity:1;stroke-width:0.76841">C</tspan></text>
      </g>
    </g>
    <text
       xml:space="preserve"
       style="font-size:10.5833px;line-height:1.25;font-family:'Zen Antique';-inkscape-font-specification:'Zen Antique';stroke-width:0.264583"
       x="8.3725338"
       y="118.30704"
       id="text900"><tspan
         sodipodi:role="line"
         id="tspan898"
         x="8.3725338"
         y="118.30704"
         style="stroke-width:0.264583">Portfolio,</tspan><tspan
         sodipodi:role="line"
         x="8.3725338"
         y="131.53616"
         style="stroke-width:0.264583"
         id="tspan902">Blog,</tspan><tspan
         sodipodi:role="line"
         x="8.3725338"
         y="144.76529"
         style="stroke-width:0.264583"
         id="tspan904">Profile,</tspan><tspan
         sodipodi:role="line"
         x="8.3725338"
         y="157.99442"
         style="stroke-width:0.264583"
         id="tspan906">Projects</tspan></text>
    <rect
       style="fill:#212121;stroke-width:0.254"
       id="rect908"
       width="3.1417766"
       height="149.23438"
       x="195.34695"
       y="9.4142551" />
  </g>
</svg>
