<?xml version="1.0" encoding="UTF-8"?>
<svg preserveAspectRatio="xMidYMid" version="1.1" viewBox="0 0 256 256" xmlns="http://www.w3.org/2000/svg">
<title>GitHub Actions</title>
<path d="m53.604 0c29.604 0 53.604 23.992 53.604 53.591 0 29.09-23.189 52.75-52.093 53.552 0 2.4615 0.10871 7.1116 1.5015 9.9194 1.9325 3.8942 13.524 11.145 24.892 11.145h4.084c2.5666-18.271 18.257-32.332 37.24-32.332 18.906 0 34.55 13.946 37.211 32.109h21.129c2.6619-18.163 18.305-32.109 37.211-32.109 20.775 0 37.616 16.837 37.616 37.607 0 20.769-16.842 37.606-37.616 37.606-18.906 0-34.55-13.947-37.211-32.11h-21.128c-2.661 18.163-18.305 32.11-37.212 32.11-18.87 0-34.493-13.893-37.198-32.007l-4.5156 0.13466c-7.4349-0.05588-15.289-2.0413-21.598-6.3276-1.7199-1.1689-3.4142-2.3971-5.1818-3.5605l-5.131e-4 2.4418c-0.0096407 0.78943-0.15204 12.657-0.16348 25.833l-3.837e-4 2.7899c0.005344 8.641 0.073663 17.545 0.27708 24.039 0.44624 14.247 12.035 25.745 24.823 28.437 1.6622 0.34903 4.5201 0.39391 6.3207 0.23818 2.5712-18.265 18.259-32.32 37.238-32.32 20.775 0 37.616 16.838 37.616 37.607s-16.842 37.607-37.616 37.607c-18.769 0-34.323-13.744-37.153-31.714h-3.2538c-24.436-1.3338-39.628-23.747-39.364-41.923 0.33445-22.877 0.082468-45.764 0.078802-68.646v-7.5641c-24.595-4.8662-43.141-26.546-43.141-52.562 0-29.598 23.999-53.591 53.604-53.591zm69.228 191.78c-14.701 0-26.62 11.915-26.62 26.614s11.918 26.614 26.62 26.614 26.621-11.915 26.621-26.614-11.918-26.614-26.621-26.614zm0-84.911c-14.701 0-26.62 11.915-26.62 26.614 0 14.698 11.918 26.613 26.62 26.613s26.621-11.915 26.621-26.613-11.918-26.614-26.621-26.614zm95.552 0c-14.702 0-26.62 11.915-26.62 26.614 0 14.698 11.917 26.613 26.62 26.613s26.621-11.915 26.621-26.613-11.918-26.614-26.621-26.614zm15.161 15.409c2.0947 2.0896 2.1524 5.447 0.17043 7.6053l-0.16035 0.16856-16.309 16.345c-2.0782 2.0832-5.4145 2.1528-7.5769 0.19787l-0.17227-0.16306-7.9847-7.86c-2.1634-2.1299-2.1909-5.6101-0.060476-7.7729 2.0764-2.1079 5.4337-2.1876 7.6063-0.21986l0.1686 0.16031 4.0922 4.0271 12.452-12.478c2.1442-2.15 5.6252-2.1537 7.7749-0.010077zm-95.99-0.080523c2.0947 2.0896 2.1524 5.447 0.17043 7.6062l-0.16035 0.16764-16.309 16.345c-2.0782 2.0832-5.4145 2.1528-7.5769 0.19787l-0.17227-0.16306-7.9847-7.86c-2.1634-2.1299-2.1909-5.6101-0.060476-7.7729 2.0754-2.1079 5.4337-2.1876 7.6063-0.21894l0.1686 0.1594 4.0922 4.0271 12.452-12.478c2.1442-2.1491 5.6252-2.1537 7.7749-0.010077zm-83.95-111.2c-23.532 0-42.608 19.071-42.608 42.598 0 23.526 19.077 42.598 42.608 42.598s42.608-19.072 42.608-42.598c0-23.527-19.077-42.598-42.608-42.598zm-4.4334 17.137c8.9642 5.3856 17.808 10.956 26.531 16.711 7.3075 4.8204 7.2892 13.563-0.099878 18.394-8.879 5.8098-17.899 11.38-27.059 16.712-7.4551 4.3395-15.8-0.65042-16.002-9.344-0.13012-5.6027-0.023824-11.211-0.031154-16.817-0.0064141-5.4543-0.11362-10.911 0.018326-16.363 0.22266-9.2478 8.7361-14.066 16.643-9.2927zm-5.9093 8.8713v3.8686c-9.163e-4 1.9155-9.163e-4 3.8054-0.0018326 5.6742l-9.163e-4 3.7101v5.4809c9.163e-4 4.2305 0.0027489 8.394 0.010079 12.558 0.0036652 1.9595 1.0235 1.8798 2.343 1.0627 7.6053-4.7141 15.214-9.4228 22.827-14.127 1.2581-0.77592 1.2938-1.5866 0.05956-2.3653-8.1533-5.1383-16.318-10.259-25.237-15.862z" fill="#4A7EBF"/>
<g fill="#85B3DF">
<path d="m133.23 223.88c3.0357 0 5.4978-2.4606 5.4978-5.4965 0-3.035-2.4621-5.4965-5.4978-5.4965s-5.4978 2.4615-5.4978 5.4965c0 3.0359 2.4621 5.4965 5.4978 5.4965"/>
<path d="m112.18 223.88c3.0357 0 5.4978-2.4606 5.4978-5.4965 0-3.035-2.4621-5.4965-5.4978-5.4965s-5.4978 2.4615-5.4978 5.4965c0 3.0359 2.4621 5.4965 5.4978 5.4965"/>
<path d="m218.38 245.01c-14.702 0-26.62-11.915-26.62-26.614s11.917-26.614 26.62-26.614c14.701 0 26.621 11.915 26.621 26.614s-11.919 26.614-26.621 26.614m0-64.221c-18.906 0-34.55 13.947-37.211 32.11h-6.1521c-2.6857 0-4.8647 2.4615-4.8647 5.4965 0 3.0359 2.179 5.4965 4.8647 5.4965h6.1521c2.661 18.163 18.305 32.11 37.211 32.11 20.775 0 37.616-16.838 37.616-37.607s-16.842-37.607-37.616-37.607"/>
</g>
</svg>
