<?xml version="1.0" encoding="UTF-8"?>
<svg viewBox="0 0 24 24" xmlns="http://www.w3.org/2000/svg">
<path d="m5.6852 7.9139h12.718v10.364c0 0.61569-0.49916 1.1148-1.1141 1.1148h-1.2739v3.1563c0 0.80153-0.63931 1.4511-1.4285 1.4511-0.7912 0-1.4296-0.6496-1.4296-1.4511v-3.1563h-2.2249v3.1563c0 0.80153-0.64058 1.4511-1.4297 1.4511-0.78899 0-1.4295-0.6496-1.4295-1.4511v-3.1563h-1.2728c-0.61508 0-1.1152-0.49916-1.1152-1.1148v-10.364h4.697e-5zm-2.4923-0.084587c-0.79721 0-1.443 0.6558-1.443 1.4654v5.727c0 0.80863 0.64575 1.4655 1.443 1.4655 0.79735 0 1.443-0.65692 1.443-1.4655v-5.727c0-0.80956-0.6456-1.4654-1.443-1.4654zm15.21-0.95976h-12.718c0.15696-1.8119 1.3323-3.3711 3.0243-4.2739l-1.2092-1.7755c-0.16307-0.23944-0.10154-0.56614 0.13836-0.72916 0.23962-0.16302 0.56567-0.10103 0.72953 0.13822l1.3179 1.9365c0.73071-0.25268 1.5239-0.39776 2.3581-0.39776 0.83521 0 1.6284 0.14508 2.3591 0.39809l1.3179-1.9362c0.16185-0.23991 0.48892-0.3019 0.72855-0.13888 0.23991 0.16302 0.30143 0.48972 0.13836 0.72916l-1.2082 1.7755c1.6919 0.90223 2.8665 2.4614 3.0233 4.2738zm-8.338-2.4619c0-0.38856-0.31463-0.7037-0.70304-0.7037-0.3894 0-0.70403 0.31515-0.70403 0.7037 0 0.38837 0.31566 0.70337 0.70403 0.70337s0.70304-0.31501 0.70304-0.70337zm5.4541 0c0-0.38856-0.31571-0.7037-0.70403-0.7037-0.3894 0-0.70309 0.31515-0.70309 0.7037 0 0.38837 0.31369 0.70337 0.70309 0.70337 0.38837 0 0.70403-0.31501 0.70403-0.70337zm5.3771 3.4197c-0.79637 0-1.4439 0.65678-1.4439 1.4664v5.729c0 0.80961 0.64758 1.4666 1.4439 1.4666 0.7974 0 1.4419-0.65692 1.4419-1.4666v-5.729c4.7e-5 -0.80961-0.64452-1.4664-1.4419-1.4664z" fill="#A4C639" fill-rule="evenodd"/>
</svg>
