<?xml version="1.0" encoding="UTF-8"?>
<svg width="512px" height="512px" preserveAspectRatio="xMidYMid" version="1.1" viewBox="-128 0 512 512" xmlns="http://www.w3.org/2000/svg">
<defs>
<linearGradient id="534cg" x1="16.363%" x2="159.99%" y1="63.905%" y2="20.213%">
<stop stop-color="#F69923" offset="0"/>
<stop stop-color="#F79A23" offset=".3123"/>
<stop stop-color="#E97826" offset=".8383"/>
</linearGradient>
<linearGradient id="534cf" x1="-217.65%" x2="74.743%" y1="394.67%" y2="13.846%">
<stop stop-color="#9E2064" offset=".3233"/>
<stop stop-color="#C92037" offset=".6302"/>
<stop stop-color="#CD2335" offset=".7514"/>
<stop stop-color="#E97826" offset="1"/>
</linearGradient>
<linearGradient id="534ce" x1="-80.044%" x2="146.24%" y1="170.42%" y2="-44.299%">
<stop stop-color="#9E2064" offset=".3233"/>
<stop stop-color="#C92037" offset=".6302"/>
<stop stop-color="#CD2335" offset=".7514"/>
<stop stop-color="#E97826" offset="1"/>
</linearGradient>
<linearGradient id="534cd" x1="-18.316%" x2="165%" y1="77.36%" y2="-41.416%">
<stop stop-color="#282662" offset="0"/>
<stop stop-color="#662E8D" offset=".095484"/>
<stop stop-color="#9F2064" offset=".7882"/>
<stop stop-color="#CD2032" offset=".9487"/>
</linearGradient>
<linearGradient id="534cc" x1="-129.78%" x2="66.456%" y1="463.71%" y2="17.19%">
<stop stop-color="#9E2064" offset=".3233"/>
<stop stop-color="#C92037" offset=".6302"/>
<stop stop-color="#CD2335" offset=".7514"/>
<stop stop-color="#E97826" offset="1"/>
</linearGradient>
<linearGradient id="534cb" x1="-34.88%" x2="110.6%" y1="187.71%" y2="-51.1%">
<stop stop-color="#9E2064" offset=".3233"/>
<stop stop-color="#C92037" offset=".6302"/>
<stop stop-color="#CD2335" offset=".7514"/>
<stop stop-color="#E97826" offset="1"/>
</linearGradient>
<linearGradient id="534ca" x1="-20.619%" x2="125.26%" y1="192.56%" y2="-136.91%">
<stop stop-color="#282662" offset="0"/>
<stop stop-color="#662E8D" offset=".095484"/>
<stop stop-color="#9F2064" offset=".7882"/>
<stop stop-color="#CD2032" offset=".9487"/>
</linearGradient>
</defs>
<path d="m218.05 2.8887c-7.9689 4.6817-21.317 18.129-37.254 37.553v1.1953l13.946 25.799 0.69728 0.49805c10.26-14.643 20.619-27.891 31.178-39.147 0.79689-0.8965 1.1953-1.2949 1.1953-1.2949-0.39844 0.39844-0.79689 0.8965-1.1953 1.2949-3.3868 3.7852-13.746 15.739-29.286 39.645l1.793 0.39844s36.358-3.586 53.889-6.5743l0.99611-0.8965c5.5782-31.278-5.4786-45.622-5.4786-45.622s-13.946-22.512-30.481-12.85z" fill="url(#534cg)"/>
<path d="m152.4 139.16c4.4825-8.2677 8.965-16.436 13.447-24.305 4.6817-8.1681 9.463-16.137 14.344-23.807 0.29883-0.39844 0.59766-0.8965 0.79689-1.3946 4.7813-7.5704 9.5626-14.742 14.444-21.715l-14.643-27.592c-1.0957 1.2949-2.1914 2.6895-3.2872 4.084-4.1837 5.2794-8.5665 10.858-13.049 16.834-5.0802 6.7735-10.26 13.946-15.539 21.516-4.8809 6.9728-9.8615 14.344-14.742 21.815-4.1837 6.4747-8.4669 13.049-12.651 19.922-0.19922 0.29883-0.29883 0.49805-0.49806 0.79689v1.0957l18.229 36.159 0.79689 0.29883c4.084-7.9689 8.1681-15.938 12.352-23.707z" fill="url(#534cf)"/>
<path d="m73.015 316.16c3.2872-8.5665 6.7735-17.233 10.26-25.998 3.3868-8.3673 6.7735-16.834 10.36-25.301 3.4864-8.4669 7.172-16.934 10.858-25.5 3.7852-8.6661 7.5704-17.332 11.455-25.899 3.8848-8.4669 7.7696-16.934 11.754-25.301 1.3946-2.9883 2.8887-6.0763 4.3829-9.0646 2.4903-5.1798 5.0802-10.36 7.5704-15.44 0.099611-0.29883 0.29883-0.49805 0.39844-0.79689l-19.026-37.553c-0.29883 0.49805-0.59766 0.99611-0.8965 1.4942-4.3829 7.2716-8.8654 14.643-13.149 22.213-4.3829 7.67-8.6661 15.44-12.85 23.309-3.586 6.6739-6.9728 13.348-10.36 20.121-0.69728 1.3946-1.2949 2.6895-1.9922 4.084-4.1837 8.5665-7.8693 16.735-11.256 24.704-3.7852 8.965-7.172 17.532-10.16 25.7-1.9922 5.379-3.6856 10.459-5.379 15.44-1.2949 4.1837-2.5899 8.4669-3.7852 12.651-2.8887 9.9611-5.2794 19.823-7.2716 29.784l0.29883 1.1953 18.229 36.258 0.59767 0.29883c2.4903-6.7735 5.0802-13.547 7.7696-20.52 0.69728-1.9922 1.4942-3.8848 2.1914-5.877z" fill="url(#534ce)"/>
<path d="m43.729 306.1c-2.3907 12.053-4.084 24.106-4.9805 36.059 0 0.39844-0.099611 0.79689-0.099611 1.2949-5.9767-9.5626-21.914-18.826-21.914-18.826 11.455 16.535 20.121 32.971 21.416 49.108-6.0763 1.2949-14.444-0.59767-24.205-4.084 10.061 9.2638 17.631 11.854 20.619 12.551-9.2638 0.59766-18.926 6.9728-28.688 14.244 14.244-5.7774 25.7-8.0685 33.967-6.2755-13.049 36.956-26.098 77.796-39.247 121.03 3.9844-1.1953 6.3751-3.8848 7.7696-7.5704 2.2911-7.8693 17.83-59.268 42.036-126.9 0.69728-1.8926 1.3946-3.8848 2.0918-5.7774 0.19922-0.49806 0.39844-1.0957 0.59767-1.5938 2.5899-7.0724 5.1798-14.344 7.9689-21.715 0.59767-1.6934 1.2949-3.3868 1.8926-5.0802v-0.099611l-19.026-37.653c0 0.49805-0.099611 0.8965-0.19922 1.2949z" fill="url(#534cd)"/>
<path d="m197.33 68.532c-4.2833 6.5743-8.965 14.045-14.045 22.512-0.29883 0.39844-0.49806 0.8965-0.79689 1.2949-4.3829 7.3712-8.965 15.34-13.846 24.205-4.1837 7.5704-8.5665 15.739-13.149 24.604-3.9844 7.67-8.0685 15.739-12.252 24.405l0.8965 0.39844 46.319-4.9805 1.0957-0.79689c14.045-6.4747 20.321-12.352 26.397-20.819 1.5938-2.2911 3.2872-4.7813 4.8809-7.2716 4.9805-7.7696 9.8615-16.237 14.145-24.704 4.1837-8.1681 7.8693-16.336 10.758-23.608 1.793-4.6817 3.2872-8.965 4.2833-12.75 0.8965-3.3868 1.5938-6.5743 2.0918-9.5626-18.727 3.2872-41.737 6.3751-56.778 7.0724z" fill="url(#534cc)"/>
<path d="m141.45 169.44c-1.5938 3.3868-3.2872 6.8732-4.9805 10.36-1.793 3.7852-3.6856 7.7696-5.4786 11.754-0.8965 1.9922-1.8926 4.084-2.7891 6.0763-2.8887 6.1759-5.6778 12.551-8.6661 19.125-3.586 8.0685-7.2716 16.535-10.957 25.202-3.586 8.3673-7.172 16.934-10.758 25.899-3.4864 8.4669-6.9728 17.233-10.459 26.198-3.1875 8.0685-6.3751 16.237-9.5626 24.803-0.19922 0.39844-0.29883 0.79689-0.49805 1.1953-3.1875 8.4669-6.2965 17.08-9.5837 25.946-0.099611 0.19922-0.27752 0.71767-0.37713 0.91689l0.68799 0.15272 13.855-1.4904 0.78217-0.32324c-0.29883-0.099611-0.48334-0.49806-0.78217-0.59767 18.328-2.291 42.733-16.037 58.571-32.971 7.2716-7.7696 13.846-17.033 20.022-27.791 4.5821-8.0685 8.7658-16.934 12.85-26.795 3.586-8.5665 6.9728-17.93 10.26-27.991-4.1837 2.1914-9.0646 3.8848-14.344 4.9805-0.8965 0.19922-1.8926 0.39844-2.8887 0.59766-0.99611 0.19922-1.9922 0.29883-2.8887 0.49806 17.133-6.5743 27.891-19.325 35.76-34.864-4.4825 3.0879-11.854 7.0724-20.619 9.0646-1.1953 0.29883-2.3907 0.49806-3.6856 0.69728-0.29883 0-0.59767 0.099611-0.8965 0.099611 5.9767-2.4903 10.957-5.2794 15.34-8.5665 0.8965-0.69728 1.793-1.3946 2.6895-2.1914 1.2949-1.1953 2.5899-2.3907 3.7852-3.586 0.79689-0.79689 1.4942-1.5938 2.2911-2.4903 1.6934-1.9922 3.2872-4.1837 4.7813-6.5743 0.49805-0.69728 0.8965-1.4942 1.3946-2.1914 0.59766-1.0957 1.0957-2.1914 1.5938-3.2872 2.3907-4.7813 4.2833-9.0646 5.7774-12.85 0.79689-1.8926 1.3946-3.586 1.9922-5.2794 0.19922-0.59766 0.39844-1.2949 0.69728-1.8926 0.59766-1.793 1.0957-3.3868 1.4942-4.8809 0.59767-2.0918 0.8965-3.7852 1.0957-4.9805-0.59766 0.49806-1.1953 0.8965-1.9922 1.3946-5.1798 3.0879-14.045 5.877-21.217 7.172l14.145-1.5938-14.145 1.5938c-0.99611 0.19922-1.6934 0.29883-2.4903 0.49806 0.066408-0.066408-15.909 1.6227-47.926 5.0673-0.19922 0.19922-1.3811 2.7023-1.8791 3.8976z" fill="url(#534cb)"/>
<path d="m65.843 350.63c-2.4903 6.8732-5.0802 13.946-7.5704 21.118 0 0.099611-0.099611 0.19922-0.099611 0.29883-0.39844 0.99611-0.69728 1.9922-1.0957 3.0879-1.6934 4.8809-3.1875 9.1642-6.5743 19.125 5.5782 2.5899 10.061 9.2638 14.344 16.934-0.39844-7.8693-3.6856-15.34-9.9611-21.018 27.592 1.1953 51.399-5.7774 63.651-25.899 1.0957-1.793 2.0918-3.6856 2.9883-5.6778-5.5782 7.0724-12.551 10.061-25.5 9.3634h-0.099611 0.099611c19.225-8.5665 28.788-16.834 37.354-30.481 1.9922-3.2872 3.9844-6.7735 5.9767-10.658-16.834 17.233-36.258 22.114-56.679 18.428l-15.34 1.6934c-0.49805 1.0957-0.99611 2.3907-1.4942 3.6856z" fill="url(#534ca)"/>
</svg>
