<?xml version="1.0" encoding="UTF-8"?>
<svg data-name="Layer 1" version="1.1" viewBox="0 0 221.84 256.19" xmlns="http://www.w3.org/2000/svg">
<defs>
<style>.cls-1{fill:#fff;}.cls-2{fill:#e0684b;}.cls-3{fill:#bb464b;}.cls-4{fill:#e0ded8;}.cls-5{fill:#d5d2ca;}</style>
</defs>
<title>babylon_logo_color</title>
<g transform="translate(-110.78,-64.81)">
<path class="cls-1" d="m221.7 64.82-110.92 64v128.11l110.92 64.07 110.92-64v-128.15z"/>
<polygon class="cls-2" points="264.5 128.09 299.22 148.14 332.62 128.85 297.9 108.81"/>
<polygon class="cls-2" points="221.7 64.81 110.78 128.85 144.18 148.14 255.09 84.1"/>
<polygon class="cls-2" points="256.41 212.94 221.7 192.89 186.98 212.94 221.7 232.98"/>
<polygon class="cls-3" points="299.22 148.14 299.22 237.65 221.7 282.41 144.18 237.65 144.18 148.14 110.78 128.85 110.78 256.93 221.7 320.97 332.62 256.93 332.62 128.85"/>
<polygon class="cls-3" points="256.41 212.94 256.41 172.85 221.7 152.81 186.98 172.85 186.98 212.94 221.7 192.89"/>
<polygon class="cls-4" points="221.7 282.41 299.22 237.65 299.22 148.14 256.41 172.85 256.41 212.94 221.7 232.98"/>
<polygon class="cls-5" points="221.7 282.41 144.18 237.65 144.18 148.14 186.98 172.85 186.98 212.94 221.7 232.98"/>
<polygon class="cls-1" points="264.5 128.09 299.22 148.14 256.41 172.85 221.7 152.81 186.98 172.85 144.18 148.14 255.09 84.1 297.9 108.81"/>
</g>
</svg>
