<?xml version="1.0" encoding="UTF-8"?>
<svg width="288px" height="288px" preserveAspectRatio="xMidYMid" version="1.1" viewBox="-16 0 288 288" xmlns="http://www.w3.org/2000/svg">
<path d="m255.57 84.452c-2e-3 -4.83-1.035-9.098-3.124-12.761-2.052-3.602-5.125-6.621-9.247-9.008-34.025-19.619-68.083-39.178-102.1-58.817-9.17-5.294-18.061-5.101-27.163 0.269-13.543 7.987-81.348 46.834-101.55 58.537-8.321 4.817-12.37 12.189-12.372 21.771-0.013 39.455 0 78.909-0.013 118.36 0 4.724 0.991 8.909 2.988 12.517 2.053 3.711 5.169 6.813 9.386 9.254 20.206 11.703 88.02 50.547 101.56 58.536 9.106 5.373 17.997 5.565 27.17 0.269 34.015-19.64 68.075-39.198 102.1-58.817 4.217-2.44 7.333-5.544 9.386-9.252 1.994-3.608 2.987-7.793 2.987-12.518 0 0 0-78.889-0.013-118.34" fill="#A179DC"/>
<path d="m128.18 143.24-125.19 72.084c2.053 3.711 5.169 6.813 9.386 9.254 20.206 11.703 88.02 50.547 101.56 58.536 9.106 5.373 17.997 5.565 27.17 0.269 34.015-19.64 68.075-39.198 102.1-58.817 4.217-2.44 7.333-5.544 9.386-9.252l-124.41-72.074" fill="#280068"/>
<path d="m255.57 84.452c-2e-3 -4.83-1.035-9.098-3.124-12.761l-124.26 71.55 124.41 72.074c1.994-3.608 2.985-7.793 2.987-12.518 0 0 0-78.889-0.013-118.34" fill="#390091"/>
<path d="m201.89 116.29v13.474h13.474v-13.474h6.7368v13.474h13.474v6.7368h-13.474v13.474h13.474v6.7368h-13.474v13.474h-6.7368v-13.474h-13.474v13.474h-6.7368v-13.474h-13.474v-6.7368h13.474v-13.474h-13.474v-6.7368h13.474v-13.474h6.7368zm13.474 20.211h-13.474v13.474h13.474v-13.474z" fill="#fff"/>
<path d="m128.46 48.626c35.144 0 65.827 19.086 82.262 47.456l-0.16037-0.27307-41.349 23.808c-8.1467-13.794-23.081-23.102-40.213-23.294l-0.53963-0.0030178c-26.126 0-47.306 21.179-47.306 47.305 0 8.5436 2.2778 16.552 6.239 23.469 8.1541 14.235 23.483 23.837 41.067 23.837 17.693 0 33.109-9.7234 41.222-24.111l-0.19713 0.34531 41.286 23.918c-16.254 28.13-46.517 47.157-81.253 47.536l-1.0582 0.005774c-35.255 0-66.025-19.204-82.419-47.724-8.003-13.923-12.582-30.064-12.582-47.277 0-52.466 42.532-94.999 95.001-94.999z" fill="#fff"/>
</svg>
