<?xml version="1.0" encoding="UTF-8"?>
<svg width="361px" height="361px" preserveAspectRatio="xMidYMid" version="1.1" viewBox="-52.5 0 361 361" xmlns="http://www.w3.org/2000/svg">
<path d="m127.84 360.09-104.18-28.922-23.217-260.4h255.11l-23.241 260.36-104.47 28.962z" fill="#264DE4"/>
<path d="m212.42 314.55 19.861-222.49h-104.28v245.89l84.417-23.404z" fill="#2965F1"/>
<path d="m53.669 188.64 2.8624 31.937h71.469v-31.937h-74.331z" fill="#EBEBEB"/>
<path d="m47.917 123.99 2.9032 31.937h77.18v-31.937h-80.083z" fill="#EBEBEB"/>
<path d="m128 271.58-0.13996 0.037275-35.569-9.6042-2.2738-25.471h-32.06l4.4744 50.146 65.421 18.161 0.14699-0.040791v-33.228z" fill="#EBEBEB"/>
<path d="m60.484 0h38.681v16.176h-22.505v16.176h22.505v16.176h-38.681v-48.527z"/>
<path d="m106.9 0h38.681v14.066h-22.505v2.8132h22.505v32.352h-38.681v-14.769h22.505v-2.8132h-22.505v-31.648z"/>
<path d="m153.32 0h38.681v14.066h-22.505v2.8132h22.505v32.352h-38.681v-14.769h22.505v-2.8132h-22.505v-31.648z"/>
<path d="m202.13 188.64 5.7656-64.641h-80.003v31.937h45.003l-2.906 32.704h-42.097v31.937h39.327l-3.7071 41.42-35.62 9.6141v33.227l65.473-18.146 0.48035-5.3957 7.5049-84.08 0.77925-8.576z" fill="#fff"/>
</svg>
