<?xml version="1.0" encoding="UTF-8"?>
<svg width="256px" height="256px" preserveAspectRatio="xMidYMid" version="1.1" viewBox="0 -35.5 256 256" xmlns="http://www.w3.org/2000/svg">
<path d="m250.72 70.497c-5.7646-3.9998-18.975-5.4998-29.304-3.4999-1.201-9.9996-6.7254-18.749-16.333-26.499l-5.5244-3.9998-3.8431 5.7498c-4.8039 7.4997-7.2058 17.999-6.4852 27.999 0.24019 3.4999 1.4412 9.7496 5.0441 15.249-3.3627 1.9999-10.328 4.4998-19.456 4.4998h-173.66l-0.48039 1.9999c-1.6814 9.9996-1.6814 41.248 18.015 65.247 14.892 18.249 36.99 27.499 66.053 27.499 62.931 0 109.53-30.249 131.39-84.997 8.647 0.24999 27.142 0 36.509-18.749 0.24019-0.49998 0.72058-1.4999 2.4019-5.2498l0.96077-1.9999-5.2843-3.2499zm-110.73-70.497h-26.421v24.999h26.421v-24.999zm0 29.999h-26.421v24.999h26.421v-24.999zm-31.225 0h-26.421v24.999h26.421v-24.999zm-31.225 0h-26.421v24.999h26.421v-24.999zm-31.225 29.999h-26.421v24.999h26.421v-24.999zm31.225 0h-26.421v24.999h26.421v-24.999zm31.225 0h-26.421v24.999h26.421v-24.999zm31.225 0h-26.421v24.999h26.421v-24.999zm31.225 0h-26.421v24.999h26.421v-24.999z" fill="#2396ED"/>
</svg>
