<?xml version="1.0" encoding="UTF-8"?>
<svg width="361px" height="361px" preserveAspectRatio="xMidYMid" version="1.1" viewBox="-52.5 0 361 361" xmlns="http://www.w3.org/2000/svg">
<path d="m255.55 70.766-23.241 260.36-104.47 28.962-104.18-28.922-23.217-260.4h255.11z" fill="#E44D26"/>
<path d="m128 337.95 84.417-23.404 19.861-222.49h-104.28v245.89z" fill="#F16529"/>
<path d="m82.82 155.93h45.18v-31.937h-80.083l0.76448 8.5683 7.8495 88.01h71.469v-31.937h-42.261l-2.9187-32.704z" fill="#EBEBEB"/>
<path d="m90.018 236.54h-32.06l4.4744 50.146 65.421 18.161 0.14699-0.040791v-33.228l-0.13996 0.037275-35.569-9.6042-2.2738-25.471z" fill="#EBEBEB"/>
<path d="m24.181 0h16.23v16.035h14.847v-16.035h16.231v48.558h-16.23v-16.26h-14.847v16.26h-16.23v-48.558h-7.032e-4z"/>
<path d="m92.831 16.103h-14.288v-16.103h44.814v16.103h-14.295v32.456h-16.231v-32.456h-7.033e-4z"/>
<path d="m130.47 0h16.923l10.41 17.062 10.4-17.062h16.93v48.558h-16.163v-24.068l-11.166 17.265h-0.27921l-11.174-17.265v24.068h-15.88v-48.558z"/>
<path d="m193.21 0h16.235v32.508h22.824v16.051h-39.059v-48.558z"/>
<path d="m127.89 220.57h39.327l-3.7071 41.42-35.62 9.6141v33.227l65.473-18.146 0.48035-5.3957 7.5049-84.08 0.77925-8.576h-74.237v31.937z" fill="#fff"/>
<path d="m127.89 155.85v0.078066h77.143l0.6407-7.1786 1.4551-16.191 0.76378-8.5683h-80.003v31.859z" fill="#fff"/>
</svg>
