<?xml version="1.0" encoding="UTF-8"?>
<svg viewBox="0 0 32 32" xmlns="http://www.w3.org/2000/svg">
<defs>
<linearGradient id="5ac3c" x1="-645.73" x2="-654.59" y1="839.19" y2="839.25" gradientTransform="matrix(-.977 -.323 -.29 .877 -375.94 -928.29)" gradientUnits="userSpaceOnUse">
<stop stop-color="#999875" offset=".231"/>
<stop stop-color="#9b9977" offset=".563"/>
<stop stop-color="#a09f7e" offset=".683"/>
<stop stop-color="#a9a889" offset=".768"/>
<stop stop-color="#b7b69a" offset=".837"/>
<stop stop-color="#c9c7b0" offset=".896"/>
<stop stop-color="#deddcb" offset=".948"/>
<stop stop-color="#f8f6eb" offset=".994"/>
<stop stop-color="#fbf9ef" offset="1"/>
</linearGradient>
<linearGradient id="5ac3b" x1="-644.29" x2="-657.03" y1="823.4" y2="845.48" gradientTransform="matrix(-.977 -.323 -.29 .877 -375.94 -928.29)" gradientUnits="userSpaceOnUse">
<stop stop-color="#48a547" offset="0"/>
<stop stop-color="#3f9143" offset="1"/>
</linearGradient>
<linearGradient id="5ac3a" x1="-643.39" x2="-652.42" y1="839.48" y2="833.42" gradientTransform="matrix(-.977 -.323 -.29 .877 -375.94 -928.29)" gradientUnits="userSpaceOnUse">
<stop stop-color="#41a247" offset="0"/>
<stop stop-color="#4ba74b" offset=".352"/>
<stop stop-color="#67b554" offset=".956"/>
<stop stop-color="#69b655" offset="1"/>
</linearGradient>
</defs>
<title>file_type_mongo</title>
<path d="M16.62,30l-.751-.249s.1-3.8-1.275-4.067c-.9-1.048.133-44.741,3.423-.149a2.712,2.712,0,0,0-1.333,1.523A14.1,14.1,0,0,0,16.62,30Z" fill="url(#5ac3c)"/>
<path d="m17.026 26.329a13.223 13.223 0 0 0 5-13.225c-1.47-6.485-4.951-8.617-5.326-9.431a9.792 9.792 0 0 1-0.825-1.6l0.277 18.069s-0.574 5.522 0.874 6.187z" fill="url(#5ac3b)"/>
<path d="M15.487,26.569S9.366,22.4,9.72,15.025A15.54,15.54,0,0,1,15.239,3.377,1.725,1.725,0,0,0,15.846,2c.381.82.319,12.243.359,13.579C16.36,20.776,15.916,25.588,15.487,26.569Z" fill="url(#5ac3a)"/>
</svg>
