<?xml version="1.0" encoding="UTF-8"?>
<svg version="1.1" viewBox="0 0 512 512" xmlns="http://www.w3.org/2000/svg">
<path d="m68.331 67.673c-29.261 30.939-52.722 74.285-62.149 114.83-1.663 7.15-3.597 15.475-4.298 18.5-0.847 3.652-1.403 16.576-1.654 38.467-0.406 35.404 0.035 40.654 5.313 63.214 6.23 26.624 18.818 56.241 33.879 79.709 8.572 13.357 19.799 28.141 22.374 29.464 2.453 1.261 3.982 0.495 10.704-5.359 10.493-9.138 12.5-11.253 12.5-13.172 0-1.03-3.416-6.36-7.591-11.843-24.045-31.579-39.119-67.324-44.874-106.41-2.072-14.075-2.072-49.073 0-63.148 4.888-33.194 17.32-65.71 35.474-92.78 8.498-12.671 11.374-16.146 13.364-16.146 1.411 0 17.627 14.68 17.627 15.958 0 0.432-3.774 6.436-8.387 13.344-16.836 25.211-26.136 48.487-31.661 79.244-2.694 14.998-3.02 46.662-0.628 60.954 3.268 19.517 8.885 38.527 15.764 53.349 10.33 22.257 28.049 48.151 32.949 48.151 0.904 0 5.012-3.038 9.127-6.75 4.116-3.712 13.072-11.7 19.902-17.75 26.211-23.217 34.934-31.643 34.934-33.745 0-1.14-1.713-4.364-3.806-7.164-8.122-10.865-14.5-24.557-18.341-39.375-1.894-7.307-2.264-11.384-2.287-25.216-0.03-17.707 0.973-24.026 6.055-38.178 4.172-11.62 12.524-25.834 15.168-25.818 1.151 8e-3 13.147 11.009 14.249 13.067 0.788 1.472 0.205 3.481-2.654 9.157-7.375 14.644-10.384 26.64-10.384 41.407 0 36.354 23.301 69.457 57.454 81.625 4.375 1.558 9.1 2.7 10.5 2.537l2.546-0.297-0.265-11c-0.42-17.399-0.059-16.557-8.998-21.033-20.906-10.468-33.779-33.263-31.883-56.452 1.226-14.99 6.434-25.812 17.896-37.188 4.263-4.23 7.75-8.297 7.75-9.036 0-1.476-8.573-10.004-22.5-22.383-4.95-4.4-15.2-13.537-22.778-20.305-11.173-9.979-14.203-12.199-16.026-11.742-1.236 0.311-5.053 3.394-8.481 6.852-18.399 18.557-31.86 44.48-37.796 72.787-2.736 13.051-2.503 40.24 0.459 53.49 2.619 11.713 5.948 21.964 10.123 31.173 1.65 3.637 2.999 7.19 2.999 7.894 0 1.656-17.129 17.556-18.476 17.151-1.993-0.599-10.465-18.373-14.398-30.208-7.111-21.396-9.754-40.609-8.598-62.5 2.147-40.664 17.679-76.811 46.032-107.13 4.092-4.376 7.44-8.446 7.44-9.045 0-1.501-4.485-5.728-35.36-33.326-17.057-15.246-27.762-24.119-29.351-24.327-1.992-0.26-3.817 1.065-8.958 6.5m339.17 15.955c-37.461 33.783-37.5 33.819-37.5 35.098 0 0.654 3.348 4.769 7.44 9.145 23.237 24.847 36.888 51.618 43.664 85.629 1.77 8.884 2.197 14.558 2.22 29.5 0.039 24.891-2.925 41.278-11.366 62.834-3.557 9.085-10.035 21.423-11.482 21.867-1.433 0.441-18.476-15.54-18.476-17.324 0-0.803 1.304-4.254 2.897-7.669 3.978-8.526 7.697-19.921 10.275-31.486 3.1-13.904 3.059-41.377-0.081-55.398-4.466-19.937-13.004-39.508-23.917-54.824-6.19-8.687-18.911-21.896-21.782-22.617-1.916-0.48-5.318 2.108-20.066 15.269-30.227 26.975-40.813 36.922-41.148 38.663-0.197 1.023 2.725 4.702 7.499 9.44 8.074 8.013 12.541 15.104 15.901 25.245 2.275 6.865 2.566 24.19 0.528 31.5-4.21 15.108-16.19 29.669-30.391 36.941-8.886 4.55-8.532 3.717-8.95 21.059-0.26 10.774-0.218 11.007 2.011 11.323 3.499 0.497 14.822-3.59 24.018-8.669 15.397-8.503 28.398-22.655 36.113-39.31 5.294-11.428 7.198-19.372 7.818-32.612 0.763-16.287-1.994-28.696-9.889-44.505-3.035-6.079-3.662-8.184-2.873-9.657 1.101-2.058 13.098-13.058 14.248-13.066 2.644-0.016 10.996 14.198 15.168 25.818 5.096 14.189 6.086 20.458 6.032 38.178-0.043 13.809-0.423 17.945-2.332 25.357-3.792 14.726-11.642 31.295-19.244 40.621-1.559 1.913-2.835 4.455-2.835 5.65 0 2.388 6.62 8.734 41.449 39.729 11.522 10.254 21.725 18.643 22.673 18.643 3.409 0 15.623-16.213 25.239-33.5 11.095-19.948 18.911-42.708 23.18-67.5 1.994-11.58 2.3-43.938 0.521-55-5.635-35.026-14.429-58.086-32.681-85.694-4.07-6.157-7.647-11.835-7.947-12.618-0.589-1.534 15.09-16.688 17.265-16.688 1.917 0 4.874 3.595 13.318 16.186 18.618 27.761 31.224 61.566 35.916 96.314 1.395 10.33 1.395 45.67 0 56-5.577 41.299-21.284 78.875-46.798 111.95-3.374 4.374-6.135 8.712-6.135 9.639 0 2.425 16.992 18.489 20.023 18.929 3.188 0.463 4.161-0.283 10.133-7.772 27.178-34.084 45.131-74.702 52.927-119.75 2.825-16.324 2.772-65.998-0.089-82.344-7.936-45.354-24.54-82.669-52.801-118.66-11.016-14.028-19.422-22.507-22.265-22.459-1.73 0.03-9.62 6.527-27.428 22.587m-158.77 126.4c-17.669 4.437-29.89 22.249-26.74 38.976 1.527 8.11 5.491 15.434 10.683 19.734 9.29 7.694 9.079 7.36 9.684 15.366 1.599 21.142 2.682 35.865 3.634 49.394 0.58 8.25 1.48 20.625 1.999 27.5 1.321 17.499 4.584 62.174 5.555 76.061 0.647 9.249 1.753 12.524 3.377 10 0.509-0.792 1.195-5.292 1.525-10 0.971-13.887 4.234-58.562 5.555-76.061 0.519-6.875 1.419-19.25 1.999-27.5 0.956-13.586 2.077-28.828 3.637-49.43 0.515-6.808 0.826-7.645 3.705-10 12.231-10.001 16.785-18.112 16.883-30.07 0.146-17.758-14.018-33.077-31.862-34.461-3.227-0.25-7.562-0.03-9.634 0.491" fill="#3c5280" fill-rule="evenodd"/>
<path d="m255.44 447.1c-0.89851-1.4538-1.9641-14.282-7.4401-89.566-4.9546-68.117-5.9228-79.563-6.8642-81.157-0.60283-1.0205-3.467-3.9035-6.3649-6.4066-15.782-13.632-17.192-34.119-3.3705-48.988 13.508-14.532 34.106-14.993 48.075-1.0749 5.9811 5.9592 9.0466 12.122 10.077 20.256 1.4945 11.804-3.0924 22.06-14.148 31.633-4.7182 4.0855-5.2656 4.9823-5.7774 9.4658-0.21276 1.8638-2.8754 37.768-5.917 79.788s-5.8212 78.473-6.1769 81.007c-0.64026 4.5611-1.3426 6.2536-2.092 5.0411z" fill="#f3771c" opacity=".92628" stroke-width=".59148"/>
</svg>
