<?xml version="1.0" encoding="UTF-8"?>
<svg viewBox="0 0 24 24" xmlns="http://www.w3.org/2000/svg">
<path d="m11.899 24c-0.3214 0-0.6406-0.084312-0.92237-0.24655l-2.936-1.7382c-0.43851-0.24523-0.22454-0.33197-0.079909-0.38194 0.58468-0.20473 0.70333-0.25096 1.3274-0.60537 0.065601-0.037423 0.15145-0.024215 0.2186 0.01541l2.2555 1.3384c0.08145 0.044027 0.19702 0.044027 0.27253 0l8.7944-5.0763c0.08145-0.046228 0.13428-0.14089 0.13428-0.23775v-10.148c0-0.10126-0.052833-0.19152-0.13604-0.24215l-8.7909-5.0719c-0.08145-0.04843-0.18932-0.04843-0.27077 0l-8.7892 5.0719c-0.085193 0.04843-0.13935 0.14309-0.13935 0.23995v10.148c0 0.09686 0.052833 0.18932 0.13648 0.23555l2.4083 1.3913c1.3076 0.6538 2.1067-0.11667 2.1067-0.89155v-10.016c0-0.14309 0.11227-0.25316 0.25536-0.25316h1.1139c0.13869 0 0.25316 0.11007 0.25316 0.25316v10.021c0 1.7435-0.95099 2.7451-2.6042 2.7451-0.50851 0-0.90916 0-2.0275-0.55034l-2.307-1.3296c-0.57015-0.3302-0.92237-0.94658-0.92237-1.6048v-10.148c0-0.66041 0.35222-1.2768 0.92237-1.6026l8.8032-5.0785c0.55694-0.31479 1.2966-0.31479 1.8491 0l8.7922 5.0807c0.56795 0.328 0.92237 0.94218 0.92237 1.6026v10.148c0 0.65821-0.35442 1.2724-0.92237 1.6026l-8.7922 5.0785c-0.28177 0.1629-0.60097 0.24655-0.92677 0.24655l8.805e-4 0.0046229zm2.7165-6.9928c-3.848 0-4.6548-1.7664-4.6548-3.2479 0-0.14089 0.11359-0.25316 0.2547-0.25316h1.1359c0.12548 0 0.23114 0.091356 0.25096 0.21529 0.17171 1.1575 0.68242 1.7413 3.0093 1.7413 1.8535 0 2.6416-0.4187 2.6416-1.4016 0-0.56575-0.22454-0.98621-3.1039-1.268-2.4083-0.23775-3.8964-0.76827-3.8964-2.6945 0-1.7743 1.4969-2.8309 4.0043-2.8309 2.8155 0 4.2112 0.9774 4.3873 3.0775 0.0066041 0.072645-0.019812 0.14309-0.068242 0.19592-0.04843 0.050631-0.11667 0.08145-0.18712 0.08145h-1.1425c-0.11887 0-0.22234-0.083652-0.24655-0.19812-0.27517-1.2174-0.93998-1.607-2.7473-1.607-2.0231 0-2.2586 0.70444-2.2586 1.2328 0 0.6406 0.27737 0.82771 3.0071 1.1887 2.7033 0.35882 3.9867 0.86513 3.9867 2.7649 0 1.9152-1.5982 3.0137-4.3851 3.0137l0.012768-0.010346z" fill="#689F63"/>
</svg>
