<?xml version="1.0" encoding="UTF-8"?>
<svg width="274px" height="274px" preserveAspectRatio="xMidYMid" version="1.1" viewBox="-9 0 274 274" xmlns="http://www.w3.org/2000/svg">
<path d="m191.55 186.29 0.059495 60.52-53.704 26.799v-60.493l53.645-26.826zm64.453-32.346v60.731l-45.805 22.859-0.033053-60.454 45.838-23.137zm-64.532-48.66 0.059495 59.885-53.625 26.647v-59.905l53.565-26.627zm64.532-32.081v59.508l-45.851 23.309-0.039663-60.004 45.891-22.813zm-126.26-7.0403 47.933 24.195-49.731 24.975-47.028-23.62 48.826-25.55zm-66.674-33.654 45.719 23.077-48.938 25.543-46.955-23.58 50.174-25.041zm130.69 0.35036 49.242 24.69-44.04 22.119-48.032-24.228 42.83-22.582zm-65.524-32.861 44.33 22.225-42.506 22.694-45.679-23.038 43.855-21.881z" fill="#4DABCF"/>
<path d="m118.94 131.91-36.173-18.186v78.606s-44.238-94.128-48.336-102.58c-0.52885-1.0907-2.7037-2.2873-3.259-2.5781-7.9327-4.1647-31.175-15.938-31.175-15.938v138.87l32.154 17.187v-72.591s43.769 84.106 44.211 85.025c0.44291 0.91887 4.8389 9.7836 9.5324 12.897 6.2536 4.1382 33.053 20.255 33.053 20.255l-0.006611-140.97z" fill="#4D77CF"/>
</svg>
