<?xml version="1.0" encoding="UTF-8"?>
<svg width="383pt" height="132pt" version="1.0" viewBox="0 0 383 132" xmlns="http://www.w3.org/2000/svg">
<g transform="translate(0 132) scale(.1 -.1)" fill="#ea1e63">
<path d="m938 1298c-93-54-89-191 5-240 107-54 237 25 223 136-12 104-133 159-228 104z"/>
<path d="m2068 1298c-93-54-89-191 5-240 49-25 125-21 165 9 87 63 73 199-24 239-48 20-103 17-146-8z"/>
<path d="m3355 1283c-158-21-290-108-346-228l-28-60-1 138v137h-279l-6-906-25-48c-36-70-81-92-185-89-44 2-91 4-105 5-24 3-25 1-39-100-11-80-11-106-2-115 8-8 65-13 169-15 138-3 164-1 215 17 80 28 146 79 184 143 57 94 65 146 70 421l5 249 23-49c48-104 129-167 306-238s220-106 221-184c1-73-41-113-137-133-75-15-195 1-304 41l-78 28-21-96c-12-53-25-105-28-117-5-19 4-24 78-49 73-25 101-29 238-33 174-5 231 4 329 50 79 38 144 101 179 176 24 50 27 70 27 157 0 89-3 106-27 150-50 96-134 158-303 225-177 70-220 105-220 177 0 38 5 49 32 73 18 16 52 34 75 41 59 16 182 5 269-24 47-16 72-20 74-13 8 24 55 201 55 208 0 11-121 47-195 58-69 9-161 11-220 3z"/>
<path d="m181 1270c-62-4-127-11-145-14l-31-6v-1240h275v450h113c180 0 309 42 399 131 25 25 55 64 67 85l20 39 1-352v-353h535l75 146c41 80 78 148 82 150 4 3 22-24 39-58 17-35 54-102 81-150l49-88h549v910l-272-2-272-3-152-282-80 141-81 141-263 5-264 5-11 50c-15 66-61 149-102 186-47 40-121 76-195 94-81 19-271 26-417 15zm338-226c48-20 71-42 92-89 50-109-10-233-131-269-54-16-136-21-178-10l-22 6 2 187 3 186 40 7c54 9 152 0 194-18zm1491-571c0-315-2-375-13-363-36 40-238 373-233 385 6 15 239 355 243 355 2 0 3-170 3-377zm-710 174c62-93 109-174 106-182-5-15-223-343-237-359-5-6-9 150-9 364 0 317 2 372 14 360 7-8 64-91 126-183z"/>
</g>
</svg>
