<?xml version="1.0" encoding="UTF-8"?>
<svg preserveAspectRatio="xMidYMid" version="1.1" viewBox="0 0 256 256" xmlns="http://www.w3.org/2000/svg">
<linearGradient id="71e8b" x1="-1845.5" x2="-1797.1" y1="1255.6" y2="981.34" gradientTransform="matrix(-1 0 0 -1 -1693.2 1246.5)" gradientUnits="userSpaceOnUse">
<stop stop-color="#FAAE42" offset="0"/>
<stop stop-color="#EF3E31" offset="1"/>
</linearGradient>
<path d="m56.9 0h141.8c6.9 0 13.6 1.1 20.1 3.4 9.4 3.4 17.9 9.4 24.3 17.2 6.5 7.8 10.8 17.4 12.3 27.4 0.6 3.7 0.7 7.4 0.7 11.1v138.3c0 4.4-0.2 8.9-1.1 13.2-2 9.9-6.7 19.2-13.5 26.7-6.7 7.5-15.5 13.1-25 16.1-5.8 1.8-11.8 2.6-17.9 2.6-2.7 0-142.1 0-144.2-0.1-10.2-0.5-20.3-3.8-28.8-9.5-8.3-5.6-15.1-13.4-19.5-22.4-3.8-7.7-5.7-16.3-5.7-24.9v-142.2c-0.2-8.5 1.6-16.9 5.3-24.5 4.3-9 11-16.9 19.3-22.5 8.5-5.8 18.5-9.2 28.7-9.7 1-0.2 2.1-0.2 3.2-0.2z" fill="url(#71e8b)"/>
<linearGradient id="71e8a" x1="130.61" x2="95.213" y1="4.1363" y2="204.89" gradientUnits="userSpaceOnUse">
<stop stop-color="#E39F3A" offset="0"/>
<stop stop-color="#D33929" offset="1"/>
</linearGradient>
<path d="m216 209.4c-0.9-1.4-1.9-2.8-3-4.1-2.5-3-5.4-5.6-8.6-7.8-4-2.7-8.7-4.4-13.5-4.6-3.4-0.2-6.8 0.4-10 1.6-3.2 1.1-6.3 2.7-9.3 4.3-3.5 1.8-7 3.6-10.7 5.1-4.4 1.8-9 3.2-13.7 4.2-5.9 1.1-11.9 1.5-17.8 1.4-10.7-0.2-21.4-1.8-31.6-4.8-9-2.7-17.6-6.4-25.7-11.1-7.1-4.1-13.7-8.8-19.9-14.1-5.1-4.4-9.8-9.1-14.2-14.1-3-3.5-5.9-7.2-8.6-11-1.1-1.5-2.1-3.1-3-4.7l-26.4-28.5v-64.5c0-31.3 25.3-56.7 56.6-56.7h50.5l37.4 38c84.4 57.4 57.1 120.7 57.1 120.7s24 27 14.4 50.7z" fill="url(#71e8a)"/>
<path d="m144.7 38c84.4 57.4 57.1 120.7 57.1 120.7s24 27.1 14.3 50.8c0 0-9.9-16.6-26.5-16.6-16 0-25.4 16.6-57.6 16.6-71.7 0-105.6-59.9-105.6-59.9 64.6 42.5 108.7 12.4 108.7 12.4-29.1-16.9-91-97.7-91-97.7 53.9 45.9 77.2 58 77.2 58-13.9-11.5-52.9-67.7-52.9-67.7 31.2 31.6 93.2 75.7 93.2 75.7 17.6-48.8-16.9-92.3-16.9-92.3z" fill="#fff"/>
</svg>
