<svg width="256px" height="256px" preserveAspectRatio="xMidYMid" version="1.1" viewBox="0 -2.5 256 256" xmlns="http://www.w3.org/2000/svg"><polygon points="123.93 11.593 123.93 23.234 103.11 23.234 103.11 30.805 123.93 30.805 123.93 53.991 132.07 53.991 132.07 30.805 153.41 30.805 153.41 23.234 132.07 23.234 132.07 0 123.93 0" fill="#7099A6"/><polygon points="55.884 41.121 55.884 58.014 24.369 58.014 24.369 68.613 55.884 68.613 55.884 102.92 67.572 102.92 67.572 68.613 99.56 68.613 99.56 58.014 67.572 58.014 67.572 24.228 55.884 24.228" fill="#EB912C"/><polygon points="187.95 41.121 187.95 58.014 156.44 58.014 156.44 69.134 187.95 69.134 187.95 102.92 200.11 102.92 200.11 69.134 231.63 69.134 231.63 58.014 200.11 58.014 200.11 24.228 187.95 24.228" fill="#59879B"/><polygon points="120.9 98.661 120.9 117.59 85.837 117.59 85.837 131.69 120.9 131.69 120.9 169.55 135.1 169.55 135.1 131.69 170.16 131.69 170.16 117.59 135.1 117.59 135.1 79.733 120.9 79.733" fill="#E8762C"/><polygon points="224.01 108.22 224.01 120.1 202.67 120.1 202.67 129.7 224.01 129.7 224.01 153.41 234.66 153.41 234.66 129.7 256 129.7 256 120.1 234.66 120.1 234.66 96.39 224.01 96.39" fill="#5B6591"/><polygon points="20.821 109.26 20.821 120.62 0 120.62 0 128.66 20.821 128.66 20.821 151.37 28.959 151.37 28.959 128.66 50.3 127.9 50.3 120.62 28.959 120.62 28.959 97.904 20.821 97.904" fill="#7099A6"/><polygon points="55.884 162.73 55.884 179.62 24.369 179.62 24.369 190.74 55.884 190.74 55.884 224.53 68.045 224.53 68.045 190.74 99.56 190.74 99.56 179.62 68.045 179.62 68.045 145.84 55.884 145.84" fill="#C72035"/><polygon points="187.95 162.73 187.95 179.62 156.44 179.62 156.44 190.22 187.95 190.22 187.95 224.53 200.11 224.53 200.11 190.22 231.63 190.22 231.63 179.62 200.11 179.62 200.11 145.84 187.95 145.84" fill="#1F447E"/><polygon points="122.94 205.65 122.94 217.48 101.59 217.48 101.59 227.09 122.94 227.09 122.94 250.79 133.58 250.79 133.58 227.09 154.92 227.09 154.92 217.48 133.58 217.48 133.58 193.77 122.94 193.77" fill="#5B6591"/></svg>
