<?xml version="1.0" encoding="UTF-8"?>
<svg preserveAspectRatio="xMidYMid" version="1.1" viewBox="0 0 256 154" xmlns="http://www.w3.org/2000/svg">
<defs>
<linearGradient id="a" x1="-2.7778%" y1="32%" y2="67.556%">
<stop stop-color="#2298BD" offset="0"/>
<stop stop-color="#0ED7B5" offset="1"/>
</linearGradient>
</defs>
<path d="m128-1.0658e-14c-34.133 0-55.467 17.067-64 51.2 12.8-17.067 27.733-23.467 44.8-19.2 9.7375 2.4344 16.697 9.4985 24.401 17.318 12.55 12.738 27.074 27.482 58.799 27.482 34.133 0 55.467-17.067 64-51.2-12.8 17.067-27.733 23.467-44.8 19.2-9.7375-2.4344-16.697-9.4985-24.401-17.318-12.55-12.738-27.074-27.482-58.799-27.482zm-64 76.8c-34.133 0-55.467 17.067-64 51.2 12.8-17.067 27.733-23.467 44.8-19.2 9.7375 2.4344 16.697 9.4985 24.401 17.318 12.55 12.738 27.074 27.482 58.799 27.482 34.133 0 55.467-17.067 64-51.2-12.8 17.067-27.733 23.467-44.8 19.2-9.7375-2.4344-16.697-9.4985-24.401-17.318-12.55-12.738-27.074-27.482-58.799-27.482z" fill="url(#a)"/>
</svg>
