<?xml version="1.0" encoding="UTF-8"?>
<svg width="274px" height="274px" preserveAspectRatio="xMidYMid" version="1.1" viewBox="-9 0 274 274" xmlns="http://www.w3.org/2000/svg">
<path d="m145.73 42.065v42.07l72.861 42.07v-42.07l-72.861-42.07zm-145.73 42.07v42.07l36.43 21.03v-42.065l-36.43-21.035zm109.29 21.035-36.43 21.035v126.2l36.43 21.035v-84.135l36.435 21.035v-42.07l-36.435-21.035v-42.065z" fill="#E55B2D"/>
<path d="m145.73 42.065-109.3 63.104v42.065l72.861-42.065v42.065l36.435-21.03v-84.139zm109.3 21.035-36.435 21.035v42.07l36.435-21.035v-42.07zm-72.865 84.135-36.43 21.035v42.07l36.43-21.035v-42.07zm-36.43 63.104-36.435-21.035v84.135l36.435-21.035v-42.065z" fill="#ED8E24"/>
<path d="m145.73-3.4186e-5 -145.73 84.135 36.43 21.035 109.3-63.104 72.861 42.07 36.435-21.035-109.3-63.1zm0 126.2-36.435 21.03 36.435 21.035 36.43-21.035-36.43-21.03z" fill="#F8BF3C"/>
</svg>
