<?xml version="1.0" encoding="UTF-8"?>
<svg preserveAspectRatio="xMidYMid" version="1.1" viewBox="0 0 256 256" xmlns="http://www.w3.org/2000/svg">
<path d="m255.64 127.68c0 70.513-57.165 127.68-127.68 127.68-70.519 0-127.68-57.167-127.68-127.68 0-70.518 57.165-127.68 127.68-127.68 70.519 0 127.68 57.165 127.68 127.68z" fill="#DD4814"/>
<path d="m41.133 110.63c-9.4194 0-17.051 7.632-17.051 17.051 0 9.4142 7.6312 17.045 17.051 17.045 9.4142 0 17.045-7.6312 17.045-17.045 0-9.4187-7.6312-17.051-17.045-17.051zm121.71 77.479c-8.1537 4.7093-10.949 15.13-6.2393 23.279 4.7041 8.1537 15.124 10.949 23.278 6.2393 8.153-4.7041 10.949-15.124 6.2393-23.279-4.7041-8.1485-15.13-10.943-23.278-6.2393zm-84.686-60.428c0-16.846 8.3677-31.73 21.171-40.742l-12.463-20.874c-14.915 9.9697-26.012 25.204-30.624 43.047 5.3813 4.391 8.8256 11.076 8.8256 18.569 0 7.4886-3.4444 14.173-8.8256 18.564 4.6057 17.848 15.703 33.083 30.624 43.053l12.463-20.879c-12.804-9.0073-21.171-23.89-21.171-40.737zm49.792-49.798c26.013 0 47.355 19.945 49.595 45.38l24.291-0.3581c-1.1952-18.778-9.3984-35.636-22.003-48.032-6.4818 2.4489-13.969 2.0743-20.44-1.6561-6.4826-3.7409-10.547-10.052-11.658-16.902-6.3002-1.7387-12.931-2.6906-19.786-2.6906-11.784 0-22.926 2.768-32.818 7.6642l11.845 21.226c6.3722-2.9654 13.481-4.632 20.975-4.632zm0 99.59c-7.4938 0-14.603-1.6674-20.974-4.632l-11.845 21.225c9.8924 4.9023 21.034 7.671 32.819 7.671 6.8549 0 13.485-0.95268 19.785-2.6966 1.1111-6.8504 5.1771-13.155 11.658-16.903 6.4758-3.7364 13.958-4.1043 20.44-1.6554 12.605-12.396 20.808-29.254 22.003-48.032l-24.297-0.3581c-2.2349 25.442-23.576 45.38-49.59 45.38zm34.888-110.23c8.1537 4.7086 18.575 1.9196 23.279-6.2341 4.7093-8.1537 1.9204-18.575-6.2341-23.285-8.1537-4.7041-18.574-1.9091-23.285 6.2446-4.7033 8.1492-1.9084 18.57 6.2401 23.274z" fill="#fff"/>
</svg>
