<?xml version="1.0" encoding="UTF-8"?>
<svg width="290px" height="290px" preserveAspectRatio="xMidYMid" version="1.1" viewBox="-17 0 290 290" xmlns="http://www.w3.org/2000/svg">
<polygon points="128 0.048302 256 72.453 256 217.31 128 289.71 0 217.31 0 72.453" fill="#fff"/>
<path d="m233.15 212.29-100.9 57.141v-44.438l62.889-34.632 38.014 21.929zm6.9072-6.2309v-119.4l-36.903 21.301v76.8l36.903 21.301zm-217.6 6.2309 100.9 57.093v-44.438l-62.889-34.584-38.014 21.929zm-6.9072-6.2309v-119.4l36.903 21.301v76.8l-36.903 21.301zm4.2989-127.13 103.51-58.542v42.989l-66.318 36.468-0.53132 0.28981-36.661-21.205zm215.86 0-103.46-58.542v42.989l66.27 36.516 0.53132 0.28981 36.661-21.253z" fill="#8ED6FB"/>
<path d="m123.36 214.85-62.02-34.149v-67.574l62.02 35.792v65.932zm8.8875 0 62.02-34.101v-67.623l-62.02 35.792v65.932zm-66.753-109.55 62.309-34.246 62.261 34.246-62.261 35.937-62.309-35.937z" fill="#1C78C0"/>
</svg>
