<?xml version="1.0" encoding="UTF-8"?>
<svg width="256px" height="256px" preserveAspectRatio="xMidYMid" version="1.1" viewBox="0 -3.5 256 256" xmlns="http://www.w3.org/2000/svg">
<path transform="translate(84.486 191.09) scale(1 -1) translate(-84.486 -191.09)" d="m142.08 191.09c0-31.806-25.782-57.592-57.588-57.592-31.81 0-57.592 25.786-57.592 57.592s25.782 57.592 57.592 57.592c31.806 0 57.588-25.786 57.588-57.592" fill="#f60"/>
<path transform="translate(198.39 110.46) scale(1 -1) translate(-198.39 -110.46)" d="m255.98 110.45c0-31.802-25.782-57.592-57.588-57.592-31.81 0-57.592 25.79-57.592 57.592 0 31.806 25.782 57.596 57.592 57.596 31.806 0 57.588-25.79 57.588-57.596" fill="#fc0"/>
<path transform="translate(57.61 109.18) scale(1 -1) translate(-57.61 -109.18)" d="m115.2 109.18c0-31.802-25.782-57.592-57.592-57.592-31.802 0-57.588 25.79-57.588 57.592 0 31.806 25.786 57.596 57.588 57.596 31.81 0 57.592-25.79 57.592-57.596" fill="#0089CC"/>
<path transform="translate(172.79 191.09) scale(1 -1) translate(-172.79 -191.09)" d="m230.39 191.09c0-31.806-25.782-57.592-57.596-57.592-31.802 0-57.588 25.786-57.588 57.592s25.786 57.592 57.588 57.592c31.815 0 57.596-25.786 57.596-57.592" fill="#009939"/>
<path transform="translate(128 57.984) scale(1 -1) translate(-128 -57.984)" d="m185.59 57.984c0-31.806-25.786-57.592-57.592-57.592s-57.592 25.786-57.592 57.592 25.786 57.592 57.592 57.592 57.592-25.786 57.592-57.592" fill="#BF0000"/>
<path transform="translate(163.19 84.219) scale(1 -1) translate(-163.19 -84.219)" d="m140.8 57.979c0-1.2116 0.10554-2.3979 0.18153-3.5927 25.545 5.8935 44.611 28.733 44.611 56.068 0 1.2116-0.10554 2.4021-0.18153 3.5969-25.545-5.8977-44.611-28.737-44.611-56.072" fill="#FC0007"/>
<path transform="translate(185.59 150.77) scale(1 -1) translate(-185.59 -150.77)" d="m148.4 162.57c9.9252-17.351 28.577-29.075 49.997-29.075 8.7304 0 16.975 2.0011 24.393 5.4797-9.921 17.351-28.572 29.075-49.997 29.075-8.7304 0-16.975-2.0011-24.393-5.4797" fill="#1CD306"/>
<path transform="translate(128.64 191.09) scale(1 -1) translate(-128.64 -191.09)" d="m115.2 191.09c0-14.071 5.0576-26.947 13.442-36.948 8.3758 10.001 13.433 22.877 13.433 36.948s-5.0576 26.947-13.433 36.948c-8.3843-10.001-13.442-22.877-13.442-36.948" fill="#0F7504"/>
<path transform="translate(71.05 150.13) scale(1 -1) translate(-71.05 -150.13)" d="m34.807 138.21c6.9953-3.0227 14.696-4.7156 22.801-4.7156 21.21 0 39.688 11.496 49.685 28.564-6.9953 3.0227-14.7 4.7114-22.801 4.7114-21.21 0-39.692-11.496-49.685-28.56" fill="#0C5E87"/>
<path transform="translate(92.804 83.581) scale(1 -1) translate(-92.804 -83.581)" d="m70.655 114.04c-0.13509-1.6042-0.24908-3.2169-0.24908-4.8592 0-27.314 19.036-50.132 44.551-56.051 0.13087 1.6042 0.24486 3.2169 0.24486 4.8549 0 27.314-19.031 50.141-44.547 56.056" fill="#6B0001"/>
<path transform="translate(123.5 147.73) scale(1 -1) translate(-123.5 -147.73)" d="m76.03 111.5h-9.0091c-7.9537 0-14.421 6.4465-14.421 14.379v81.546c0 7.9325 6.4676 14.383 14.421 14.383h112.97c7.9537 0 14.417-6.4507 14.417-14.383v-81.546c0-7.9325-6.4634-14.379-14.417-14.379h-38.485l-77.215-37.852 11.741 37.852z" fill="#fff"/>
</svg>
