<?xml version="1.0" encoding="UTF-8"?>
<!DOCTYPE svg  PUBLIC '-//W3C//DTD SVG 1.1//EN'  'http://www.w3.org/Graphics/SVG/1.1/DTD/svg11.dtd'>
<svg enable-background="new 0 0 1200 1200" version="1.1" viewBox="0 0 1200 1200" xml:space="preserve" xmlns="http://www.w3.org/2000/svg">
<path d="m599.31 1200c-335.07-6.439-596.97-281.11-599.31-600.69 6.515-334.82 279.73-596.97 599.31-599.31 334.84 6.694 598.34 279.3 600.69 599.31-6.619 335.09-280.68 598.34-600.69 600.69zm0-1157.5c-311.12 6.126-556.01 259.72-558.17 556.8 6.051 311.36 261.1 556.01 558.17 558.17 311.36-6.053 556.01-261.1 558.17-558.17-5.873-311.35-261.53-554.64-558.17-556.8zm-144 1047.8 153.6-441.6 160.46 432c-108.1 36.189-210.3 38.382-314.06 9.6zm-117.94-780.34c-56.23 7.644-110.92 10.369-164.57 8.229 101.88-145.65 265-227.59 426.51-229.03 132.11 2.5 255.27 52.438 345.6 134.4-41.893-3.097-66.977 15.276-85.028 46.628-26.234 80.939 29.201 140.85 60.344 201.6 29.443 55.505 27.108 118.62 10.971 172.8l-76.8 261.94-185.14-549.94c19.291-1.795 38.708-2.373 56.229-5.486 20.736-4.617 25.286-23.914 10.971-35.657-4.57-3.656-9.6-5.484-15.086-5.484l-111.08 8.229h-84.343c-23.813 1.406-91.053-21.597-96.688 9.601-2.911 12.017 6.06 21.436 16.457 23.313 18.346 2.377 39.365 5.076 56.229 6.857l80.914 216.69-112.46 331.88-186.51-549.94c19.736-1.714 39.733-2.312 57.6-5.486 14.63-1.833 21.028-9.146 19.2-21.943-2.593-11.377-12.734-19.064-23.315-19.199zm-205.71 85.029 245.49 663.77c-88.577-43.659-158.61-107.86-208.46-184.46-91.195-145.53-100.79-330.16-37.028-479.31zm959.32 340.8c-40.303 131.61-122.62 240.61-236.57 306.52 5.484-14.629 14.171-39.314 26.057-74.058l142.63-414.17c13.714-40.229 23.314-85.028 28.8-134.4 1.853-20.199 1.914-40.564-1.371-58.972 58.437 126.04 75.015 250.89 40.455 375.09z"/>
</svg>
